<svg width="263" height="136" viewBox="0 0 263 136" fill="none" xmlns="http://www.w3.org/2000/svg">
<path d="M35.3708 36.3501C31.3105 36.3501 27.2502 36.3501 23.114 36.3501C23.114 32.1953 23.114 28.1167 23.114 24C27.2123 24 31.3105 24 35.4088 24C35.3708 28.1167 35.3708 32.2334 35.3708 36.3501Z" fill="#7BD0C7"/>
<path d="M23 60.9358C23.0381 60.9358 23.0762 60.9358 23.1143 60.9358C23.1143 61.1264 23.0762 61.317 23.0762 61.5457C23.0762 77.6313 23.0762 93.6788 23.0762 109.764C23.0762 109.955 23.0762 110.146 23.1143 110.374C23.0762 110.374 23.0381 110.374 23 110.374C23 93.9076 23 77.4026 23 60.9358Z" fill="#3E3C38"/>
<path d="M125.494 90.3629C112.63 90.3629 99.8043 90.3629 86.9783 90.3629C87.3578 91.6589 87.889 92.8405 88.61 93.9459C90.9627 97.4908 94.3021 99.5111 98.4383 100.159C104.092 101.036 108.798 99.168 112.858 95.28C113.351 94.7845 113.921 94.3652 114.414 93.9459C116.88 96.4235 119.499 99.0536 122.155 101.722C121.851 102.027 121.51 102.37 121.168 102.751C117.677 106.182 113.731 108.812 108.987 110.222C105.648 111.175 102.271 111.442 98.8177 111.213C95.061 110.946 91.494 110.108 88.1547 108.354C81.476 104.886 77.2639 99.3967 75.4425 92.0781C73.9246 85.9793 74.4179 79.9948 77.0742 74.3153C80.5274 66.8442 86.3332 62.232 94.378 60.5548C100.336 59.297 106.141 59.945 111.606 62.7276C116.121 65.0146 119.461 68.5214 121.851 72.9431C123.711 76.4118 124.811 80.1473 125.191 84.0734C125.38 86.0556 125.38 88.0377 125.456 89.9817C125.532 90.0579 125.494 90.1723 125.494 90.3629ZM112.782 80.3379C111.871 77.0598 110.05 74.544 107.204 72.7906C104.32 71.0372 101.17 70.5035 97.8691 70.8847C93.2775 71.4184 89.9002 73.7435 87.8132 77.8984C87.4337 78.6607 87.1681 79.4612 86.8265 80.2998C95.5543 80.3379 104.13 80.3379 112.782 80.3379Z" fill="#3E3C38"/>
<path d="M219.261 85.3314C219.147 92.3069 217.06 98.2152 212.468 103.132C208.977 106.868 204.689 109.231 199.718 110.375C193.685 111.785 187.689 111.48 181.921 109.079C173.914 105.724 168.943 99.7018 167.084 91.1634C165.87 85.5601 166.401 80.1093 168.792 74.8872C171.979 67.9879 177.292 63.3375 184.502 61.1648C193.381 58.4966 201.767 59.7545 209.281 65.3959C214.973 69.7032 218.16 75.5352 219.033 82.6632C219.185 83.6543 219.223 84.6453 219.261 85.3314ZM192.85 70.7705C188.676 70.7705 184.729 72.5239 181.921 75.802C178.923 79.347 177.785 83.4637 178.544 88.0378C179.189 91.7352 181.086 94.7084 183.932 97.0717C186.816 99.435 190.156 100.617 193.874 100.312C197.555 100.007 200.629 98.4058 203.133 95.6994C206.549 92.0402 207.915 87.6947 207.042 82.7395C205.866 75.8402 199.794 70.7705 192.85 70.7705Z" fill="#3E3C38"/>
<path d="M35.3707 36.3501C44.7057 36.312 53.9647 36.312 63.2616 36.312C69.1813 36.312 75.139 36.312 81.0587 36.312C81.2484 36.312 81.4002 36.312 81.6279 36.312C81.6279 40.4287 81.6279 44.5073 81.6279 48.624C76.0118 48.624 70.3577 48.624 64.6657 48.624C64.6657 69.2075 64.6657 89.7529 64.6657 110.298C60.5295 110.298 56.4692 110.298 52.3709 110.298C52.3709 89.7529 52.3709 69.2456 52.3709 48.6621C46.6789 48.6621 41.0628 48.6621 35.4087 48.6621C35.3707 48.5478 35.3707 48.4715 35.3707 48.3953C35.3328 44.3929 35.3328 40.3906 35.3707 36.3501Z" fill="#3E3C38"/>
<path d="M135.284 110.336C135.284 93.8694 135.284 77.4026 135.284 60.9358C144.202 60.9358 153.081 60.9358 161.999 60.9358C161.999 65.0525 161.999 69.1692 161.999 73.324C157.18 73.324 152.398 73.324 147.579 73.324C147.579 85.6741 147.579 97.9861 147.579 110.336C143.443 110.336 139.383 110.336 135.284 110.336Z" fill="#3E3C38"/>
<path d="M23.1141 110.336C23.1141 110.146 23.0762 109.955 23.0762 109.727C23.0762 93.641 23.0762 77.5935 23.0762 61.5078C23.0762 61.3172 23.0762 61.1267 23.1141 60.8979C27.1744 60.8979 31.2347 60.8979 35.333 60.8979C35.333 77.3648 35.333 93.7934 35.333 110.298C31.2727 110.336 27.2124 110.336 23.1141 110.336Z" fill="#3E3C38"/>
<path d="M231.593 60.9359C232.276 60.9359 232.959 60.9359 233.605 60.9359C233.718 60.9359 233.908 61.1265 233.946 61.2408C234.705 63.566 235.464 65.8912 236.185 68.102C236.337 67.5303 236.488 66.8441 236.678 66.1199C237.209 64.4808 237.741 62.8418 238.272 61.2027C238.31 61.0884 238.462 60.9359 238.576 60.9359C239.259 60.8978 239.98 60.9359 240.663 60.9359C240.663 64.0234 240.663 67.0728 240.663 70.1222C240.169 70.1222 239.638 70.1222 239.107 70.1222C239.107 67.7589 239.107 65.3957 239.107 63.1467C238.348 65.3957 237.589 67.7589 236.792 70.1222C236.716 70.1603 236.678 70.1604 236.678 70.1604C235.35 70.2366 235.35 70.2366 234.933 68.9787C234.325 67.0728 233.718 65.1669 233.073 63.2611C233.073 63.2229 233.035 63.1848 232.959 63.0705C232.959 65.4719 232.959 67.797 232.959 70.1222C232.466 70.1222 231.973 70.1222 231.479 70.1222C231.593 67.0728 231.593 64.0615 231.593 60.9359Z" fill="#3E3C38"/>
<path d="M227.571 70.1607C226.964 70.1607 226.433 70.1607 225.826 70.1607C225.826 67.6069 225.826 65.053 225.826 62.461C224.877 62.461 223.928 62.461 222.98 62.461C222.98 61.9654 222.98 61.4699 222.98 60.9744C225.446 60.9744 227.875 60.9744 230.379 60.9744C230.379 61.4318 230.379 61.9273 230.379 62.4229C229.431 62.4229 228.52 62.4229 227.571 62.4229C227.571 65.0149 227.571 67.5688 227.571 70.1607Z" fill="#3E3C38"/>
</svg>
