<svg width="263" height="136" viewBox="0 0 263 136" fill="none" xmlns="http://www.w3.org/2000/svg">
<g clip-path="url(#clip0_432_973)">
<path d="M55.9156 61.8004C64.5726 59.0542 69.602 52.6329 69.6432 43.9097C69.7257 35.9133 66.1392 30.0574 58.6364 26.6651C54.5964 24.8477 50.3091 24.1208 45.9393 24.0804C36.5815 23.9592 27.2648 23.9996 17.9069 23.9996C17.6184 23.9996 17.3298 23.9996 17 23.9996C17 44.5155 17 64.9101 17 85.3856C20.5453 85.3856 24.0081 85.3856 27.4709 85.3856C28.2542 85.3856 28.1717 84.9413 28.1717 84.4567C28.1717 77.9546 28.213 71.493 28.1717 64.9909C28.1717 64.2236 28.4191 64.0216 29.1611 64.0216C33.2835 64.062 37.4059 64.0216 41.5284 64.062C41.9818 64.062 42.6002 64.3447 42.8888 64.7082C47.4646 70.0391 51.9993 75.37 56.5339 80.7009C65.1498 90.8376 73.7244 100.934 82.299 111.071C82.7113 111.555 83.1235 111.757 83.7831 111.757C87.6582 111.717 91.5332 111.757 95.4083 111.757C95.6969 111.757 95.9854 111.717 96.3152 111.677C82.299 95.1589 68.3653 78.7624 54.3491 62.2447C55.0086 62.0831 55.4621 61.9216 55.9156 61.8004ZM45.9393 54.4907C40.3329 54.5311 34.6851 54.4907 29.0787 54.5311C28.2954 54.5311 28.1717 54.2484 28.1717 53.5618C28.213 50.4521 28.1717 47.3021 28.1717 44.1924H28.213C28.213 41.0827 28.2542 37.9326 28.213 34.8229C28.213 34.1364 28.4603 33.9345 29.1199 33.9748C34.7264 34.0152 40.2916 33.9748 45.8981 34.0556C48.5777 34.096 51.1748 34.5806 53.4834 35.9133C56.8225 37.8115 58.2241 40.8 58.1417 44.5155C58.0592 48.2713 56.2454 51.0175 52.865 52.7945C50.6801 53.9253 48.3303 54.4503 45.9393 54.4907Z" fill="#030303"/>
<path d="M198.386 83.3665C199.211 83.3665 199.499 83.1646 199.499 82.3165C199.458 77.1067 199.499 71.897 199.499 66.6873C199.499 64.5872 199.499 62.4872 199.499 60.3872C199.582 60.3468 199.705 60.3064 199.788 60.266C200.571 61.1545 201.313 62.043 202.096 62.8911C207.827 69.5143 213.515 76.1375 219.287 82.7203C219.575 83.0838 220.194 83.3261 220.647 83.3665C222.585 83.4473 224.564 83.3665 226.501 83.4473C227.284 83.4877 227.573 83.2857 227.573 82.478C227.573 70.2008 227.573 57.964 227.614 45.6868C227.614 44.9599 227.367 44.758 226.666 44.7984C224.151 44.8387 221.637 44.8387 219.163 44.7984C218.421 44.7984 218.256 45.0407 218.256 45.7272C218.297 52.9562 218.256 60.1852 218.256 67.3738C218.256 67.5354 218.215 67.6565 218.133 68.0604C217.061 66.8084 216.113 65.7584 215.164 64.668C209.682 58.2871 204.199 51.9466 198.675 45.6061C198.345 45.2022 197.768 44.8387 197.273 44.8387C195.212 44.758 193.151 44.8387 191.09 44.7984C190.347 44.7984 190.183 45.0407 190.183 45.7272C190.183 58.0044 190.183 70.2412 190.141 82.5184C190.141 83.205 190.347 83.4473 191.048 83.4473C193.522 83.3261 195.954 83.3261 198.386 83.3665Z" fill="#030303"/>
<path d="M163.634 67.5758C164.83 60.6295 163.139 54.4909 157.492 49.7658C153.493 46.4138 148.711 44.9195 143.558 44.758C136.962 44.5561 130.325 44.6368 123.688 44.5964C122.864 44.5964 122.946 45.0811 122.946 45.6061C122.946 51.7043 122.946 57.8429 122.946 63.9411C122.905 63.9411 122.905 63.9411 122.864 63.9411C122.864 70.0393 122.864 76.1779 122.864 82.2761C122.864 82.9223 122.864 83.3261 123.77 83.3261C129.707 83.2857 135.643 83.4473 141.579 83.2857C144.259 83.205 147.021 82.9223 149.577 82.1953C157.203 80.0549 162.315 75.3702 163.634 67.5758ZM154.111 66.7277C153.081 71.9374 149.041 75.2894 143.187 75.774C139.848 76.0164 136.467 75.8548 133.087 75.8952C132.469 75.8952 132.386 75.5721 132.386 75.0471C132.386 71.3316 132.386 67.5758 132.386 63.8603C132.386 60.2256 132.428 56.5909 132.386 52.9966C132.386 52.1889 132.634 51.9466 133.458 51.987C136.22 52.0274 138.941 51.987 141.703 52.0678C145.042 52.1081 148.175 52.9562 150.69 55.2178C154.276 58.3679 154.977 62.4064 154.111 66.7277Z" fill="#030303"/>
<path d="M115.938 63.2547C115.773 57.0757 112.97 51.5833 107.157 47.787C101.551 44.0716 95.2847 43.2639 88.7301 44.3543C83.2061 45.2831 78.6302 47.8274 75.1674 52.2698C68.0768 61.3969 70.9213 75.0472 81.0624 80.7012C87.7407 84.3763 94.7488 84.8609 101.963 82.559C110.538 79.8127 115.979 72.4222 115.938 63.2547ZM93.5121 76.2588C86.2154 76.2588 80.8151 71.0491 80.8151 63.9816C80.8151 56.793 86.2154 51.5833 93.5945 51.5833C100.974 51.5833 106.292 56.793 106.292 63.9412C106.333 71.1299 100.974 76.2588 93.5121 76.2588Z" fill="#030303"/>
<path d="M180.536 82.4377C180.495 76.2991 180.536 70.1605 180.536 63.9815C180.577 63.9815 180.577 63.9815 180.618 63.9815C180.618 57.8833 180.618 51.7447 180.618 45.6465C180.618 45.0811 180.66 44.6772 179.835 44.6772C177.197 44.7176 174.558 44.7176 171.92 44.6772C171.302 44.6772 171.096 44.8792 171.096 45.5253C171.096 57.8429 171.096 70.1605 171.054 82.5185C171.054 83.205 171.261 83.4069 171.961 83.3666C174.517 83.3262 177.114 83.3262 179.67 83.3666C180.371 83.3666 180.536 83.0839 180.536 82.4377Z" fill="#030303"/>
<path d="M135.313 90.5147C132.469 90.1917 129.542 90.3936 126.697 90.3128C125.873 90.2724 125.667 90.5551 125.667 91.3628C125.708 94.5937 125.667 97.8245 125.667 101.015C125.667 103.963 125.667 106.911 125.667 109.859C125.667 111.959 125.419 111.717 127.522 111.677C130.449 111.596 133.417 111.677 136.344 111.313C139.559 110.909 141.909 109.173 143.104 106.104C143.97 103.842 144.135 101.459 143.888 99.0765C143.311 93.8667 140.631 91.0801 135.313 90.5147ZM141.126 105.054C140.631 107.315 139.023 108.89 136.756 109.254C134.035 109.698 131.232 109.657 128.47 109.779C128.305 109.779 127.975 109.213 127.975 108.931C127.934 106.265 127.934 103.64 127.934 100.975C127.934 98.3092 127.934 95.6841 127.934 93.0186C127.934 92.4129 128.058 92.0898 128.758 92.0898C130.407 92.1302 132.056 92.0494 133.705 92.1706C139.065 92.4936 141.249 94.5533 141.62 99.763C141.785 101.5 141.538 103.317 141.126 105.054Z" fill="#030303"/>
<path d="M118.04 100.53C118.617 100.207 119.071 100.005 119.483 99.7226C122.328 97.5822 121.874 93.2206 118.659 91.5244C116.886 90.5955 114.99 90.3532 113.052 90.6763C109.919 91.1609 107.693 93.584 107.404 96.6533C107.363 97.138 107.322 97.6226 108.023 97.5014C108.559 97.4207 109.466 97.9861 109.507 96.8553C109.589 93.4225 112.31 91.6859 116.02 92.4129C117.546 92.6956 118.741 93.5437 119.112 95.1187C119.483 96.8149 119.03 98.3091 117.546 99.0361C116.474 99.5611 115.196 99.6823 114 99.8438C113.382 99.9246 112.97 99.9246 112.97 100.692C112.97 101.459 113.299 101.621 113.959 101.54C114.454 101.5 114.907 101.5 115.402 101.54C117.298 101.702 118.947 102.307 119.689 104.165C120.637 106.467 119.483 108.931 117.133 109.9C113.753 111.273 108.888 109.981 108.888 105.457C108.888 104.529 107.982 104.973 107.528 104.932C107.322 104.932 106.868 105.377 106.868 105.619C106.786 107.84 107.734 109.577 109.63 110.788C112.145 112.363 114.99 112.081 117.587 111.515C120.472 110.869 122.039 108.486 122.08 105.821C122.245 103.357 121.05 101.782 118.04 100.53Z" fill="#030303"/>
<path d="M190.183 100.853C189.358 97.8649 187.049 96.0072 183.999 95.8053C180.66 95.5629 178.104 97.0572 176.826 99.965C175.713 102.469 175.713 104.973 176.62 107.517C177.279 109.375 178.434 110.909 180.412 111.515C181.608 111.879 182.968 111.798 184.287 111.798C187.627 111.838 189.853 109.981 190.512 106.669C188.946 106.265 188.74 106.346 188.121 107.638C187.627 108.688 186.885 109.536 185.73 110.021C182.35 111.394 179.052 109.577 178.269 105.821C177.98 104.448 177.98 104.448 179.382 104.448C182.845 104.448 186.307 104.448 189.77 104.448C190.471 104.448 190.801 104.246 190.677 103.519C190.471 102.63 190.43 101.742 190.183 100.853ZM187.75 102.873C186.225 102.873 184.741 102.873 183.216 102.873C181.773 102.873 180.33 102.913 178.887 102.832C178.64 102.832 178.145 102.469 178.145 102.348C178.722 99.1572 181.072 96.8957 184.452 97.5418C186.555 97.9457 188.41 100.127 188.451 102.227C188.534 102.832 188.204 102.873 187.75 102.873Z" fill="#030303"/>
<path d="M202.55 103.559C201.725 103.277 200.86 103.196 200.076 102.953C198.716 102.59 197.314 102.307 196.078 101.702C194.552 100.934 194.552 99.1573 195.995 98.1476C198.386 96.4514 202.014 97.5822 202.962 100.288C203.292 101.217 204.075 100.652 204.652 100.732C204.735 100.732 205.064 100.086 204.982 99.8438C204.652 98.9957 204.322 98.1072 203.745 97.4611C201.519 94.9975 195.789 95.2399 193.687 97.8245C192.409 99.3996 192.697 101.903 194.429 102.994C195.459 103.64 196.655 103.963 197.85 104.327C199.169 104.73 200.571 104.932 201.931 105.377C202.88 105.7 203.58 106.346 203.663 107.436C203.704 108.486 203.168 109.213 202.261 109.738C199.252 111.515 195.707 110.304 194.511 107.113C194.181 106.225 193.398 106.75 192.821 106.669C192.738 106.669 192.45 107.113 192.491 107.315C192.821 109.132 193.604 110.708 195.459 111.354C196.613 111.758 197.891 111.838 199.128 112.04C199.128 111.959 199.169 111.879 199.169 111.798C199.953 111.798 200.736 111.879 201.519 111.798C203.622 111.596 205.435 109.9 205.683 107.921C205.889 106.023 204.693 104.286 202.55 103.559Z" fill="#030303"/>
<path d="M238.786 43.2233C234.911 43.2637 231.737 46.2522 231.778 49.9273C231.778 53.562 234.911 56.4697 238.786 56.5101C242.743 56.5505 245.876 53.3601 246 49.9677C245.959 46.2522 242.578 43.1829 238.786 43.2233ZM238.827 55.3389C235.612 55.3389 233.014 52.9158 233.014 49.9273C233.014 46.858 235.653 44.4349 238.91 44.4349C242.166 44.4752 244.64 46.8176 244.64 49.9273C244.598 52.9966 242.084 55.3389 238.827 55.3389Z" fill="#030303"/>
<path d="M227.614 107.961C227.573 105.336 227.614 102.711 227.49 100.127C227.408 98.3901 226.46 97.0977 224.852 96.3304C222.09 95.0784 218.957 95.7246 216.896 97.9458C216.813 98.0266 216.69 98.1074 216.442 98.2689C216.442 97.7843 216.401 97.4208 216.442 97.0573C216.525 96.29 216.112 96.1285 215.453 96.2092C214.876 96.2496 214.175 95.9669 214.216 97.0169C214.257 101.661 214.257 106.265 214.216 110.91C214.216 111.838 214.752 111.717 215.329 111.758C215.948 111.758 216.483 111.758 216.442 110.91C216.401 109.092 216.401 107.275 216.442 105.458C216.442 104.165 216.36 102.832 216.566 101.54C216.937 98.9555 219.163 97.34 221.884 97.542C224.357 97.7439 225.429 99.0766 225.47 102.025C225.47 102.227 225.47 102.429 225.47 102.631C225.47 105.377 225.512 108.123 225.429 110.869C225.429 111.758 225.883 111.758 226.542 111.758C227.16 111.758 227.738 111.798 227.655 110.91C227.573 109.9 227.614 108.931 227.614 107.961Z" fill="#030303"/>
<path d="M210.547 97.1381C210.547 96.3304 210.217 96.2092 209.517 96.2092C208.816 96.2092 208.445 96.29 208.445 97.1381C208.486 99.3997 208.445 101.621 208.445 103.882C208.445 106.144 208.486 108.446 208.445 110.708C208.445 111.435 208.61 111.717 209.434 111.717C210.176 111.717 210.547 111.636 210.547 110.748C210.506 106.184 210.506 101.661 210.547 97.1381Z" fill="#030303"/>
<path d="M172.827 104.892C172.58 103.317 171.796 102.146 170.189 101.621C170.065 101.581 169.941 101.459 169.777 101.379C170.354 101.015 170.807 100.652 171.302 100.329C171.384 100.329 171.425 100.288 171.425 100.207C171.632 100.046 171.796 99.844 172.003 99.6824C172.085 99.6824 172.126 99.642 172.085 99.5613C173.734 97.8651 173.899 94.6746 172.497 92.9784C172.497 92.8977 172.497 92.8573 172.415 92.8573C172.003 92.413 171.673 91.9284 171.178 91.5649C169.983 90.6765 168.581 90.3534 167.097 90.3534C163.717 90.313 160.377 90.3534 156.997 90.313C156.255 90.313 156.09 90.5957 156.09 91.2822C156.131 97.7843 156.131 104.327 156.09 110.829C156.09 111.798 156.626 111.717 157.286 111.717C157.986 111.717 158.481 111.717 158.44 110.788C158.399 108.285 158.44 105.74 158.399 103.236C158.399 102.509 158.564 102.227 159.388 102.267C161.655 102.307 163.923 102.348 166.19 102.267C167.55 102.227 168.746 102.509 169.777 103.398C169.777 103.479 169.818 103.519 169.9 103.559C170.23 104.69 170.642 105.781 170.848 106.911C171.054 107.961 170.972 109.052 171.137 110.102C171.384 111.838 172.126 112.202 173.775 111.596C173.569 110.546 173.322 109.496 173.198 108.446C172.992 107.235 172.992 106.023 172.827 104.892ZM158.357 99.7632C158.316 97.4612 158.357 95.1189 158.316 92.8169C158.316 92.2111 158.605 92.09 159.141 92.09C160.46 92.09 161.738 92.09 163.057 92.09C163.057 92.1303 163.057 92.1303 163.057 92.1707C164.5 92.1707 165.943 92.0899 167.385 92.2111C169.776 92.413 171.137 93.8669 171.219 96.1689C171.302 98.1882 169.818 100.127 167.633 100.288C164.747 100.531 161.82 100.409 158.893 100.409C158.728 100.409 158.357 99.9651 158.357 99.7632Z" fill="#030303"/>
<path d="M210.63 91.7264C210.506 91.2014 211.083 90.2322 209.723 90.2322C208.445 90.2726 208.404 90.2322 208.404 91.5245C208.404 91.8072 208.445 92.1303 208.404 92.413C208.28 93.2207 208.61 93.5438 209.475 93.5438C210.382 93.5438 210.753 93.3015 210.63 92.413C210.588 92.1707 210.63 91.9688 210.63 91.7264Z" fill="#030303"/>
<path d="M240.146 50.2908C241.218 49.8062 241.795 48.9581 241.63 48.1504C241.465 47.1811 240.641 46.5753 239.445 46.4946C238.456 46.4138 237.467 46.3734 236.477 46.4138C236.23 46.4138 235.776 46.8176 235.735 47.06C235.653 48.9581 235.611 50.8966 235.653 52.7947C235.653 53.037 236.065 53.3197 236.271 53.562C236.477 53.3197 236.807 53.1178 236.889 52.8351C236.972 52.3101 236.931 51.7851 236.931 51.2197C236.889 50.6139 237.219 50.3716 237.755 50.5331C238.209 50.6947 238.703 50.8966 239.033 51.2601C239.486 51.7043 239.775 52.3101 240.064 52.8755C240.476 53.6428 241.053 53.8043 241.96 53.4813C241.218 52.4312 240.558 51.5024 239.857 50.4523C239.981 50.3716 240.064 50.3312 240.146 50.2908ZM238.373 49.5639C236.972 49.5235 236.683 49.2004 237.054 47.8677C237.095 47.7465 237.137 47.585 237.219 47.5446C237.631 47.2215 239.858 47.5446 240.105 47.9888C240.476 48.5946 240.311 49.1196 239.651 49.3619C239.239 49.4831 238.786 49.4831 238.373 49.5639Z" fill="#030303"/>
</g>
<defs>
<clipPath id="clip0_432_973">
<rect width="229" height="88" fill="white" transform="translate(17 24)"/>
</clipPath>
</defs>
</svg>
