<svg width="263" height="136" viewBox="0 0 263 136" fill="none" xmlns="http://www.w3.org/2000/svg">
<g clip-path="url(#clip0_432_1051)">
<path d="M109.886 58.3953C110.046 58.3953 110.52 58.315 110.6 57.596V55.8486C110.52 55.2909 110.205 55.1296 110.046 55.0552H93.2898C93.0556 55.0552 92.7358 55.2909 92.6619 56.0894V84.799C92.6619 85.6777 93.1362 85.8383 93.2898 85.8383H109.886C109.886 85.8383 110.52 85.9135 110.6 85.0457V83.2983C110.52 82.6545 110.205 82.5057 109.965 82.5057H96.3731V72.1577H109.965C110.125 72.1577 110.519 71.9972 110.6 71.3651V69.6119C110.52 68.9732 110.205 68.8185 109.965 68.8185H96.3731V58.2347L109.886 58.3953Z" fill="black"/>
<path d="M84.2827 85.9996H85.9398C87.0478 85.9996 86.9672 85.2823 86.9672 85.2823V55.7692C86.9672 55.2918 86.6532 55.2115 86.5727 55.2115H85.7844C85.7047 55.2115 85.4655 55.2918 85.2304 55.6137L73.2147 72.3935L61.1242 55.6128C60.8841 55.291 60.6499 55.2107 60.5702 55.2107H59.7022C59.6224 55.2107 59.3076 55.291 59.3076 55.7683V85.3559C59.3076 85.6025 59.5427 85.9996 60.3301 85.9996H61.9922C62.9407 85.9996 63.0205 85.4428 63.0205 85.2823V63.7243L72.9804 77.4877H73.2944L83.2544 63.6441V85.2823C83.2552 85.6778 83.4894 85.9996 84.2827 85.9996Z" fill="black"/>
<path d="M143.314 68.8981H130.595C130.44 68.9733 130.041 69.1338 130.041 69.8528V71.2842C130.12 71.9221 130.36 72.1579 130.595 72.239H140.949C140.161 78.3665 135.26 82.9774 129.332 83.0627C122.93 83.0627 117.635 77.5739 117.635 70.6454C117.635 63.7245 122.93 58.2349 129.332 58.2349C133.204 58.2349 136.682 60.305 138.818 63.4887C138.818 63.4887 139.052 63.8858 139.606 63.9661H142.29C142.61 63.8858 142.61 63.6442 142.61 63.564C142.61 63.4887 142.524 63.4084 142.524 63.4084C140 58.4765 135.019 55.0562 129.251 55.0562C120.953 55.0562 114.311 62.1326 114.311 70.8076C114.311 79.3949 120.953 86.473 129.331 86.473C137.624 86.473 144.272 79.3949 144.272 70.7265V70.1689C144.188 69.1338 143.634 68.9733 143.314 68.8981Z" fill="black"/>
<path d="M173.354 85.207L159.676 55.2909C159.527 55.0551 159.367 54.9749 159.208 54.9749H158.1C157.94 54.9749 157.78 55.0551 157.631 55.2909L143.719 85.2822C143.719 85.4428 143.719 85.839 144.348 85.9143H146.723C147.192 85.9143 147.427 85.6785 147.512 85.5289L150.75 78.2802H166.398L169.711 85.6033C169.797 85.7638 170.031 85.9143 170.51 85.9143H172.566C173.44 85.839 173.44 85.2822 173.354 85.207ZM152.326 75.0195L158.654 60.8608L165.056 75.0195H152.326Z" fill="black"/>
<path d="M229.472 85.0466V80.4257C229.387 79.9542 229.068 79.8028 228.918 79.7175H217.296V72.6344H228.45C228.599 72.6344 228.918 72.4739 229.004 71.9965V67.7024C228.918 67.1448 228.45 66.9893 228.28 66.9893H217.222V60.5449H228.759C229.004 60.5449 229.388 60.3844 229.388 59.7456V55.6121C229.388 54.8939 228.834 54.8137 228.684 54.7334H211.215C210.979 54.8137 210.574 54.975 210.574 55.6121V84.7348C210.574 85.6026 211.363 85.6026 211.363 85.6026H228.758C229.067 85.6034 229.387 85.4429 229.472 85.0466Z" fill="black"/>
<path d="M206.227 67.1448H192.635C192.486 67.1448 191.932 67.2251 191.932 67.9433V72.6336C191.932 73.2724 192.315 73.4279 192.56 73.4279H200.07C198.803 77.4008 195.319 80.1883 191.294 80.1883C186.318 80.1883 182.046 75.8993 182.046 70.3286C182.046 64.7587 186.318 60.4647 191.294 60.4647C193.51 60.4647 195.49 61.2581 197.067 62.6894C197.067 62.6894 197.535 63.166 198.249 63.166H204.332C204.886 63.166 204.972 62.85 204.886 62.6894C202.286 57.6764 197.216 54.1758 191.294 54.1758C182.601 54.1758 175.805 61.5741 175.805 70.4088C175.805 79.2444 182.602 86.5574 191.294 86.5574C199.985 86.5574 206.782 79.1583 206.782 70.3286V67.9424C206.782 67.3865 206.462 67.1448 206.227 67.1448Z" fill="black"/>
<path d="M259.341 85.207V55.4523C259.267 55.2107 259.108 54.8947 258.639 54.8144H253.813C253.185 54.8144 253.025 55.2107 253.025 55.4523V72.3935L236.034 55.056C235.8 54.8144 235.63 54.7341 235.555 54.7341H234.052C233.967 54.7341 233.658 54.8144 233.658 55.2107V85.0465C233.733 85.2823 233.817 85.6033 234.371 85.6786H239.591C240.379 85.6033 240.379 84.886 240.379 84.886V67.9431L257.37 85.2815C257.604 85.5281 257.764 85.6025 257.924 85.6025H259.191C259.022 85.6778 259.267 85.6033 259.341 85.207Z" fill="black"/>
<path d="M171.459 49.0081H169.796C168.688 49.0081 168.774 49.7212 168.774 49.7212V64.3632C168.849 64.599 169.008 64.9209 169.796 64.9209H171.459C172.566 64.9209 172.48 64.2027 172.48 64.2027V49.5657C172.48 49.3241 172.246 49.0081 171.459 49.0081Z" fill="#E04498"/>
<path d="M25.7149 53.0663V57.6772H32.6713V54.0211C32.6713 53.1474 33.3799 52.4284 34.2537 52.3482H35.8302V45.2658C35.8302 44.0761 34.8816 43.1213 33.6997 43.1213H23.5794C22.3966 43.1213 21.4489 44.0761 21.4489 45.2658V50.0423H22.8709C24.4532 50.1986 25.7149 51.4745 25.7149 53.0663Z" fill="#FAAF1C"/>
<path d="M33.6996 57.7575H32.6713V59.0333C32.6713 59.907 33.3798 60.7005 34.2536 60.6202H39.0737C39.9417 60.6202 40.656 59.907 40.656 58.9531V54.1014C40.656 53.2218 39.9425 52.5095 39.0737 52.5095H35.7554V55.613C35.8301 56.7225 34.8815 57.7575 33.6996 57.7575Z" fill="#75C044"/>
<mask id="mask0_432_1051" style="mask-type:luminance" maskUnits="userSpaceOnUse" x="22" y="46" width="14" height="12">
<path d="M22.0776 55.7685C22.0776 56.4867 22.7113 57.1246 23.4248 57.1246H33.8532C34.6473 57.1246 35.2013 56.4867 35.2013 55.7685V54.6532C35.2013 54.6532 30.9295 47.6561 22.0028 46.1445L22.0776 55.7685Z" fill="white"/>
</mask>
<g mask="url(#mask0_432_1051)">
<path d="M35.281 46.2256H22.0775V57.1998H35.281V46.2256Z" fill="url(#paint0_radial_432_1051)"/>
</g>
<path d="M32.6713 54.1013V57.7574H33.6996C34.8815 57.7574 35.8301 56.8026 35.8301 55.6129V52.5094H34.2536C33.3798 52.4283 32.6713 53.2217 32.6713 54.1013Z" fill="#06522C"/>
<path d="M22.7912 50.1985H6.90312C5.32661 50.1985 3.97852 51.4743 3.97852 53.1465V69.1337C3.97852 70.7256 5.24604 72.0775 6.90312 72.0775H14.9668V68.4958C14.9668 66.5068 16.5491 64.8397 18.6041 64.8397H25.6352V53.1465C25.715 51.4743 24.4533 50.1985 22.7912 50.1985Z" fill="#E04197"/>
<mask id="mask1_432_1051" style="mask-type:luminance" maskUnits="userSpaceOnUse" x="21" y="50" width="5" height="8">
<path d="M22.791 50.1985H21.369V55.6128C21.369 56.8026 22.3168 57.7574 23.5045 57.7574H25.6351V53.1465C25.7148 51.4743 24.4531 50.1985 22.791 50.1985Z" fill="white"/>
</mask>
<g mask="url(#mask1_432_1051)">
<path d="M25.7148 50.1985H21.369V57.7574H25.7148V50.1985Z" fill="url(#paint1_radial_432_1051)"/>
</g>
<mask id="mask2_432_1051" style="mask-type:luminance" maskUnits="userSpaceOnUse" x="4" y="54" width="21" height="18">
<path d="M4.85217 67.3863V69.0534C4.85217 70.249 5.80074 71.1235 6.90297 71.1235H22.8716C24.0536 71.1235 24.9274 70.1687 24.9274 69.0534V54.4172C11.3293 56.7223 4.85217 67.3863 4.85217 67.3863Z" fill="white"/>
</mask>
<g mask="url(#mask2_432_1051)">
<path d="M4.85217 54.3369H24.9266V71.1226H4.85217V54.3369Z" fill="url(#paint2_radial_432_1051)"/>
</g>
<path d="M40.3354 64.7595H25.7148V69.0536C25.7148 70.6454 24.4523 71.9973 22.8708 71.9973H15.1261V90.2144C15.1261 92.1984 16.7026 93.8713 18.7592 93.8713H40.416C42.392 93.8713 44.0541 92.2845 44.0541 90.2144V68.4207C43.8938 66.4317 42.3114 64.7595 40.3354 64.7595Z" fill="#29A3DD"/>
<path d="M25.7148 69.0536V64.7595H18.6787C16.7026 64.7595 15.0455 66.3514 15.0455 68.4207V71.9965H22.7902C24.4531 71.9965 25.7148 70.6454 25.7148 69.0536Z" fill="#2E388E"/>
<mask id="mask3_432_1051" style="mask-type:luminance" maskUnits="userSpaceOnUse" x="16" y="70" width="27" height="23">
<path d="M16.1544 87.8233V90.053C16.1544 91.5763 17.417 92.8413 18.9187 92.8413H40.1809C41.6827 92.8413 42.9452 91.5763 42.9452 90.053V70.5652C24.7671 73.6695 16.1544 87.8233 16.1544 87.8233Z" fill="white"/>
</mask>
<g mask="url(#mask3_432_1051)">
<path d="M16.0747 70.5652H42.9461V92.8413H16.1544L16.0747 70.5652Z" fill="url(#paint3_radial_432_1051)"/>
</g>
<path d="M22.791 50.1985H21.369V55.6128C21.369 56.8026 22.3168 57.7574 23.5045 57.7574H25.6351V53.1465C25.7148 51.4743 24.4531 50.1985 22.791 50.1985Z" fill="#962C6B"/>
</g>
<defs>
<radialGradient id="paint0_radial_432_1051" cx="0" cy="0" r="1" gradientUnits="userSpaceOnUse" gradientTransform="translate(30.5428 49.1837) scale(7.48253 7.5316)">
<stop stop-color="#FDDD00"/>
<stop offset="0.22" stop-color="#FDD800"/>
<stop offset="0.5078" stop-color="#FCCE11"/>
<stop offset="0.8318" stop-color="#FBBA19"/>
<stop offset="1" stop-color="#FAAF1C"/>
</radialGradient>
<radialGradient id="paint1_radial_432_1051" cx="0" cy="0" r="1" gradientUnits="userSpaceOnUse" gradientTransform="translate(33.7794 46.0273) rotate(179.951) scale(14.1461 14.2388)">
<stop stop-color="#FFCB10"/>
<stop offset="0.1653" stop-color="#FFC813"/>
<stop offset="0.3816" stop-color="#FCBB18"/>
<stop offset="0.6261" stop-color="#FAA71C"/>
<stop offset="0.8897" stop-color="#F58E21"/>
<stop offset="1" stop-color="#F48020"/>
</radialGradient>
<radialGradient id="paint2_radial_432_1051" cx="0" cy="0" r="1" gradientUnits="userSpaceOnUse" gradientTransform="translate(12.1544 57.7838) rotate(-0.0489932) scale(13.3517 13.4415)">
<stop stop-color="#F38AB8"/>
<stop offset="0.2015" stop-color="#EF84B4"/>
<stop offset="0.4651" stop-color="#EA77AD"/>
<stop offset="0.7618" stop-color="#E55FA3"/>
<stop offset="1" stop-color="#E04197"/>
</radialGradient>
<radialGradient id="paint3_radial_432_1051" cx="0" cy="0" r="1" gradientUnits="userSpaceOnUse" gradientTransform="translate(24.0254 74.3636) rotate(-0.0482799) scale(18.971 19.0954)">
<stop stop-color="#82D2F4"/>
<stop offset="0.2134" stop-color="#7BCDF2"/>
<stop offset="0.4926" stop-color="#6AC2EE"/>
<stop offset="0.8069" stop-color="#49B0E4"/>
<stop offset="1" stop-color="#29A3DD"/>
</radialGradient>
<clipPath id="clip0_432_1051">
<rect width="255" height="51" fill="white" transform="translate(4 43)"/>
</clipPath>
</defs>
</svg>
