<svg width="264" height="136" viewBox="0 0 264 136" fill="none" xmlns="http://www.w3.org/2000/svg">
<g clip-path="url(#clip0_432_1154)">
<path d="M39.1259 77.7214C40.2618 76.7563 41.3741 79.3926 42.084 80.24C40.0251 80.4753 39.9541 78.6864 39.1259 77.7214Z" fill="#C9E8FA"/>
<path d="M70.7662 77.7213C72.8488 77.4859 71.9022 80.4988 71.6182 81.511C70.3876 81.4874 70.0563 80.5459 69.512 79.8398C69.1807 78.3804 71.2159 79.2748 70.7662 77.7213Z" fill="#C9E8FA"/>
<path d="M64.85 72.2603C64.9684 71.154 63.2171 71.9308 63.5721 70.5891C66.4593 66.6111 63.1225 60.8913 62.2942 56.7486C60.7323 56.3013 61.6079 58.3256 60.188 58.0196C60.7086 51.476 53.8694 52.2527 51.3372 48.7926C48.1897 50.0166 43.859 47.2391 40.3802 48.7926C38.629 53.8063 31.4584 55.5246 33.612 63.0568C31.5057 63.9042 31.9317 67.0113 32.334 69.3651C33.3043 68.6825 33.3043 66.9642 35.7182 67.6939C35.0082 68.8237 36.1678 71.6483 37.3984 72.331C39.7176 73.602 42.8651 72.072 45.3972 71.9073C45.8469 71.8837 47.0775 72.4487 47.5034 72.331C51.2425 71.1776 51.3845 67.4114 53.3961 66.0462C54.674 66.6818 53.0411 67.8822 53.3961 68.9885C55.4786 69.5299 53.9877 66.4934 55.0763 66.0462C57.1588 66.7524 54.2954 68.2353 55.5023 69.8359C53.0411 72.4957 52.1418 71.3188 50.4379 72.7782C50.2723 74.3317 52.1182 73.8845 51.7158 75.7205C49.1127 77.7919 45.8232 75.438 43.717 74.4494C42.8651 75.2026 43.5987 76.0029 42.0368 75.2968C42.6757 77.0151 46.6515 75.4145 47.5271 76.968C43.433 79.8397 37.6587 76.3325 34.8662 74.0257C34.8425 74.6142 34.7952 75.2262 35.2922 75.2968C35.0082 75.8382 34.1563 75.1085 33.186 75.7205C33.186 74.6142 33.3516 73.3196 32.76 72.7782C31.1744 73.1077 29.0919 71.413 28.5239 69.4122C27.3643 69.2239 28.8552 71.719 27.672 71.5071C26.5124 70.9893 26.536 68.7296 26.3941 67.2938C25.9681 62.3742 26.749 57.4312 28.9262 55.1244C25.4238 55.2421 25.5421 59.0083 23.0099 60.1616C22.7259 57.7607 25.4238 58.3492 25.1161 55.9483C24.9978 54.4654 23.9802 57.4312 23.8382 55.9483C23.7672 53.6415 25.6841 53.3355 28.0743 53.4297C28.098 51.7584 28.1926 48.1335 29.7545 46.6977C29.6835 46.2034 28.9736 46.3446 28.4766 46.274C29.6835 44.3909 30.9851 42.6256 33.1386 41.637C33.044 40.5777 32.4287 42.2254 31.4584 41.637C31.5767 40.2482 32.8547 39.9657 33.9906 39.542C34.1799 40.413 33.7066 40.6483 33.5646 41.2133C35.1502 40.8366 36.2861 40.0128 38.2267 39.9422C38.2267 40.6483 38.2267 41.331 38.2267 42.0371C42.1314 41.0014 48.1897 42.1313 52.1418 41.1897C52.4021 39.542 50.4143 40.1305 50.0356 39.0948C50.4143 37.1882 52.3785 40.154 54.2717 39.5185C54.3664 38.0356 53.6564 37.3294 52.1655 37.4236C54.6977 36.0348 55.8809 39.5891 57.6558 40.3659C62.3179 38.9771 64.1874 43.1905 65.6547 46.2505C66.0806 45.9915 66.0806 45.2854 66.9326 45.4031C68.1395 47.2862 67.8319 50.6521 71.1687 50.4403C70.364 51.4524 71.8786 52.8412 71.5946 54.6537C75.7361 54.7243 76.3513 64.2102 72.8726 65.5519C75.4994 67.2231 75.6414 73.3431 73.7245 76.0265C67.7135 75.3439 69.9854 82.9468 64.8737 83.1351C64.992 83.9824 66.0096 83.9354 66.1516 84.8063C67.6425 84.312 68.4235 83.1586 70.3877 83.1351C69.6778 86.501 66.5539 87.4426 65.3233 90.2436C64.2821 90.3143 63.3118 90.3143 62.7912 89.8199C59.2887 97.2345 48.8287 97.7524 39.1733 99.047C39.5519 97.2345 37.5167 97.8936 37.0671 96.9521C18.9395 97.5641 5.99464 79.9809 9.61542 60.5147C10.42 64.2102 13.1652 65.9521 13.4255 70.1654C14.7271 70.495 14.2301 69.0121 15.5317 69.318C15.6027 70.0713 15.0111 70.189 15.1057 70.9893C20.4304 75.0614 20.8564 84.006 29.4469 84.8298C29.2102 86.3127 30.9378 85.8655 30.7248 87.3484C32.3104 86.5717 33.257 85.5124 34.5349 87.3484C35.3158 87.2778 34.7952 85.9361 35.3868 85.6772C37.635 86.3127 42.9124 85.4418 42.1551 87.7721C44.6636 86.7129 47.8111 84.2414 51.4319 85.6772C52.7571 84.9946 49.7753 85.1594 50.5799 83.5823C53.3014 82.9468 59.2651 83.4646 58.5788 78.9452C57.7978 79.0158 57.1825 79.2277 56.8985 79.7926C57.7031 77.1799 61.3476 73.6491 64.85 72.2603Z" fill="#C9E8FA"/>
<path d="M54.7212 62.1859C54.0349 60.0439 51.8577 59.4319 52.189 56.3013C54.4372 57.078 56.7801 62.5154 53.467 63.8335C53.3723 62.7743 53.6326 62.0682 54.7212 62.1859Z" fill="#C9E8FA"/>
<path d="M89.0358 77.3682V55.5952H99.0699C100.04 55.5952 100.963 55.6658 101.791 55.7835C102.643 55.9012 103.472 56.2543 104.3 56.7957C104.513 56.9134 104.749 57.1017 105.033 57.3606C105.317 57.6195 105.601 57.9255 105.862 58.3257C106.122 58.7023 106.359 59.173 106.572 59.6909C106.761 60.2323 106.856 60.8443 106.856 61.5504C106.856 61.6916 106.856 61.88 106.832 62.1153C106.808 62.3507 106.761 62.6096 106.69 62.8921C106.619 63.1746 106.501 63.457 106.359 63.7866C106.217 64.0926 106.004 64.4221 105.743 64.7281C105.672 64.7987 105.554 64.9635 105.365 65.1518C105.175 65.3636 104.939 65.5519 104.679 65.7167C104.537 65.8109 104.395 65.905 104.276 65.9521C104.158 65.9992 104.063 66.0462 104.04 66.0933C104.276 66.211 104.584 66.3993 104.962 66.6347C105.341 66.8701 105.743 67.1996 106.146 67.5998C106.548 67.9999 106.879 68.4942 107.163 69.0827C107.447 69.6711 107.589 70.3773 107.589 71.2011C107.589 71.4601 107.566 71.7661 107.518 72.1191C107.471 72.4957 107.376 72.8724 107.211 73.2961C107.045 73.7197 106.832 74.1434 106.501 74.5907C106.169 75.0379 105.767 75.4616 105.27 75.8617C104.749 76.2619 104.276 76.5443 103.827 76.7091C103.377 76.8739 103.046 76.9916 102.809 77.0622C102.288 77.1799 101.768 77.274 101.223 77.2976C100.679 77.3211 100.158 77.3446 99.6141 77.3682H89.0358ZM98.0522 64.2102C98.4545 64.2102 98.8095 64.1867 99.1882 64.1161C99.5432 64.0455 99.8745 63.8572 100.158 63.5512C100.466 63.2216 100.632 62.8215 100.632 62.3743C100.632 62.2801 100.608 62.1153 100.584 61.927C100.561 61.7387 100.466 61.5269 100.3 61.2915C100.135 61.0561 99.9455 60.8913 99.7325 60.7737C99.5195 60.656 99.2828 60.5853 99.0225 60.5147C98.7622 60.4677 98.5019 60.4206 98.2416 60.4206C97.9812 60.4206 97.7209 60.397 97.4843 60.397H95.6857V67.5527L98.0522 64.2102ZM97.437 72.637C97.9576 72.637 98.4546 72.6134 98.9752 72.5193C99.4722 72.4487 99.9218 72.2133 100.253 71.7896C100.348 71.6954 100.466 71.5071 100.584 71.2718C100.703 71.0364 100.774 70.7068 100.774 70.3538C100.774 70.0478 100.726 69.7888 100.608 69.5535C100.513 69.3181 100.395 69.1298 100.253 68.9885C100.111 68.8238 99.9691 68.7061 99.8271 68.6119C99.6851 68.5178 99.5432 68.4472 99.4485 68.4001C99.1408 68.2353 98.7859 68.1412 98.3836 68.1176C97.9813 68.0941 97.4369 68.0705 96.7507 68.0705H95.6621V72.6605L97.437 72.637Z" fill="#F3EC5E"/>
<path d="M109.483 77.3682V55.5952H115.517V77.3682H109.483Z" fill="#F3EC5E"/>
<path d="M128.296 77.3682V73.4844L125.528 77.2976C125.078 77.4388 124.652 77.5565 124.297 77.6271C123.918 77.6978 123.492 77.7448 123.019 77.7448C122.853 77.7448 122.617 77.7448 122.333 77.7213C122.049 77.6978 121.717 77.6271 121.362 77.533C121.007 77.4388 120.629 77.2741 120.25 77.0622C119.848 76.8504 119.493 76.5679 119.162 76.1913C118.901 75.9088 118.688 75.6499 118.57 75.4145C118.452 75.1792 118.357 74.9909 118.333 74.8496C118.191 74.473 118.097 74.0964 118.073 73.6962C118.049 73.2961 118.026 72.8959 118.002 72.4958V62.1389H123.942V69.9772C123.918 70.8481 123.942 71.5072 124.037 71.9544C124.131 72.4016 124.368 72.7782 124.77 73.0607C125.007 73.2255 125.244 73.3196 125.457 73.3432C125.67 73.3667 125.835 73.3902 125.954 73.3902C126.214 73.3902 126.474 73.3667 126.734 73.2726C126.995 73.2019 127.208 73.1078 127.421 73.0136C127.61 72.9195 127.799 72.8018 127.941 72.7076C128.083 72.6135 128.202 72.5429 128.273 72.4958V62.1389H134.165V77.3682H128.296Z" fill="#F3EC5E"/>
<path d="M142.472 70.9186C142.59 71.2952 142.756 71.6718 142.992 72.0485C143.229 72.4251 143.513 72.7311 143.892 73.0135C144.27 73.296 144.767 73.5078 145.335 73.6726C145.903 73.8374 146.637 73.908 147.465 73.908C148.08 73.908 148.743 73.8609 149.429 73.7432C150.116 73.6255 150.778 73.5078 151.37 73.3431C151.607 73.2725 151.82 73.1783 152.056 73.1077C152.293 73.0371 152.506 72.9429 152.743 72.8488L150.21 77.2504C149.122 77.4858 148.152 77.6271 147.371 77.6741C146.566 77.7212 145.927 77.7447 145.477 77.7447C145.217 77.7447 144.744 77.7212 144.105 77.6977C143.442 77.6741 142.732 77.5564 141.928 77.3446C141.123 77.1327 140.318 76.8032 139.49 76.3324C138.662 75.8617 137.952 75.1791 137.36 74.2611C137.1 73.8374 136.816 73.296 136.532 72.5898C136.248 71.8837 136.106 70.9422 136.106 69.7888C136.106 69.5063 136.13 69.0826 136.177 68.5177C136.224 67.9528 136.39 67.3173 136.65 66.6111C136.958 65.7873 137.36 65.1047 137.857 64.5397C138.354 63.9748 138.851 63.5276 139.372 63.1745C139.892 62.8214 140.389 62.5625 140.863 62.3977C141.336 62.233 141.715 62.1153 141.999 62.0447C142.259 61.9741 142.614 61.927 143.04 61.8564C143.466 61.7857 144.01 61.7622 144.673 61.7622C144.909 61.7622 145.335 61.7857 145.903 61.8093C146.471 61.8328 147.11 61.9505 147.797 62.1388C148.128 62.233 148.53 62.3977 149.027 62.6096C149.524 62.8214 150.021 63.1274 150.518 63.5276C151.015 63.9277 151.488 64.4456 151.938 65.0811C152.364 65.7167 152.719 66.4934 152.956 67.4349C153.05 67.8351 153.145 68.2823 153.192 68.8237C153.263 69.3651 153.287 70.0712 153.287 70.9422L142.472 70.9186ZM147.584 67.9293C147.56 67.8351 147.536 67.6703 147.536 67.4585C147.536 67.2466 147.465 67.0113 147.371 66.7523C147.158 66.211 146.85 65.8108 146.4 65.5283C145.951 65.2459 145.477 65.1047 144.933 65.1047C144.696 65.1047 144.412 65.1517 144.128 65.2223C143.844 65.293 143.56 65.4577 143.3 65.6696C143.04 65.8814 142.827 66.1874 142.614 66.5405C142.425 66.9171 142.283 67.3879 142.235 67.9528L147.584 67.9293Z" fill="#F3EC5E"/>
<path d="M160.008 68.5648C159.866 68.4941 159.582 68.3765 159.156 68.1881C158.73 67.9998 158.304 67.7645 157.854 67.482C157.168 67.0583 156.624 66.5875 156.245 66.0932C155.843 65.5989 155.559 65.1046 155.346 64.6339C155.133 64.1396 154.991 63.6923 154.943 63.2686C154.896 62.8449 154.849 62.4683 154.849 62.1623C154.849 61.2679 155.014 60.4205 155.346 59.6202C155.677 58.8199 156.15 58.0902 156.766 57.4547C157.357 56.8662 157.973 56.3954 158.612 56.0894C159.274 55.7834 159.889 55.5245 160.505 55.3833C161.12 55.2185 161.664 55.1479 162.161 55.1244C162.658 55.1008 163.037 55.1008 163.274 55.1008C164.007 55.1008 164.694 55.1479 165.309 55.2421C165.924 55.3362 166.492 55.4539 166.965 55.5951C167.462 55.7364 167.888 55.8776 168.267 56.0188C168.646 56.1601 168.953 56.3013 169.214 56.419V61.8563C169.048 61.7386 168.882 61.5974 168.74 61.4797C168.598 61.362 168.433 61.2443 168.267 61.1502C168.101 61.056 167.888 60.9148 167.604 60.7736C167.32 60.6323 167.013 60.4911 166.658 60.3499C166.303 60.2086 165.9 60.091 165.451 59.9968C165.001 59.9027 164.528 59.8556 164.007 59.8556C163.842 59.8556 163.676 59.8556 163.487 59.8791C163.297 59.9027 163.132 59.9262 162.966 59.9733C162.564 60.0674 162.232 60.2793 161.972 60.5853C161.712 60.8913 161.57 61.2679 161.57 61.7151C161.57 62.0446 161.641 62.3271 161.806 62.5389C161.972 62.7743 162.161 62.9626 162.398 63.1039C162.635 63.2686 162.895 63.3863 163.179 63.504C163.463 63.6217 163.723 63.7159 163.96 63.7865L165.64 64.4691C166.587 64.8928 167.439 65.3871 168.196 66.0226C168.953 66.6346 169.521 67.4585 169.876 68.4941C169.947 68.6825 170.018 68.9649 170.113 69.3651C170.207 69.7652 170.278 70.236 170.278 70.7774C170.278 71.0834 170.231 71.5306 170.137 72.1426C170.042 72.7546 169.782 73.4137 169.379 74.1198C168.859 75.0378 168.22 75.7675 167.462 76.2853C166.705 76.8032 165.924 77.2033 165.167 77.4387C164.41 77.6741 163.7 77.8389 163.061 77.8859C162.422 77.933 161.972 77.9566 161.688 77.9566C160.883 77.9566 159.984 77.8859 159.014 77.7212C158.044 77.5564 157.168 77.3681 156.387 77.1563C156.103 77.0621 155.819 76.9915 155.559 76.8738C155.298 76.7796 155.038 76.662 154.73 76.5678L154.754 70.8951C154.896 70.9892 155.038 71.1069 155.18 71.2246C155.322 71.3423 155.464 71.4364 155.63 71.5541C155.724 71.6247 155.961 71.7424 156.292 71.9072C156.624 72.072 157.026 72.2603 157.499 72.4486C157.973 72.6369 158.47 72.8017 159.038 72.9194C159.605 73.0606 160.173 73.1312 160.741 73.1312C160.789 73.1312 160.907 73.1312 161.12 73.1077C161.333 73.1077 161.57 73.0606 161.83 72.99C162.09 72.9194 162.351 72.8252 162.587 72.6604C162.824 72.4957 163.037 72.2838 163.203 72.0014C163.25 71.9307 163.274 71.8366 163.321 71.6954C163.368 71.5541 163.392 71.3658 163.392 71.1775C163.392 71.1069 163.392 71.0127 163.368 70.8951C163.368 70.7774 163.321 70.6361 163.25 70.4714C163.061 70.0477 162.753 69.7652 162.327 69.5534C161.901 69.3415 161.499 69.1768 161.096 69.0355L160.008 68.5648Z" fill="#F3EC5E"/>
<path d="M183.2 77.3682L178.372 69.4828V77.3682H172.243V55.5952H178.372V68.4707L182.892 62.1389H189.589L184.762 68.9179L190.157 77.3682H183.2Z" fill="#F3EC5E"/>
<path d="M202.179 76.6384C201.872 77.4152 201.54 78.1684 201.209 78.8981C200.878 79.6278 200.404 80.3104 199.836 80.9695C199.363 81.4873 198.842 81.911 198.298 82.2406C197.754 82.5701 197.186 82.829 196.571 83.0173C195.979 83.2056 195.34 83.3233 194.701 83.3939C194.062 83.4646 193.399 83.4881 192.76 83.4881C192.051 83.4881 191.506 83.4646 191.104 83.4175C190.702 83.3704 190.323 83.2998 189.968 83.2056L191.483 79.1335C191.577 79.1806 191.719 79.2277 191.861 79.2747C192.027 79.3218 192.216 79.3453 192.5 79.3453C192.618 79.3453 192.784 79.3218 192.997 79.2983C193.21 79.2747 193.423 79.2041 193.66 79.11C193.896 79.0158 194.133 78.8746 194.393 78.7098C194.63 78.545 194.867 78.2861 195.08 77.9801C195.174 77.8154 195.269 77.6506 195.316 77.5094C195.387 77.3681 195.411 77.2504 195.435 77.2034L189.66 62.1624H195.955L198.866 72.1191L201.753 62.1624H207.741L202.179 76.6384Z" fill="#F3EC5E"/>
<path d="M209.113 77.3682V55.5952H219.147C220.117 55.5952 221.04 55.6658 221.869 55.7835C222.721 55.9012 223.549 56.2543 224.377 56.7957C224.59 56.9134 224.827 57.1017 225.111 57.3606C225.395 57.6195 225.679 57.9255 225.939 58.3257C226.199 58.7023 226.436 59.173 226.649 59.6909C226.838 60.2323 226.933 60.8443 226.933 61.5504C226.933 61.6916 226.933 61.88 226.909 62.1153C226.886 62.3507 226.838 62.6096 226.767 62.8921C226.696 63.1746 226.578 63.457 226.436 63.7866C226.294 64.0926 226.081 64.4221 225.821 64.7281C225.75 64.7987 225.631 64.9635 225.442 65.1518C225.253 65.3636 225.016 65.5519 224.756 65.7167C224.614 65.8109 224.472 65.905 224.354 65.9521C224.235 65.9992 224.141 66.0462 224.117 66.0933C224.354 66.211 224.661 66.3993 225.04 66.6347C225.418 66.8701 225.821 67.1996 226.223 67.5998C226.625 67.9999 226.957 68.4942 227.241 69.0827C227.525 69.6711 227.667 70.3773 227.667 71.2011C227.667 71.4601 227.643 71.7661 227.596 72.1191C227.548 72.4957 227.43 72.8724 227.288 73.2961C227.146 73.7197 226.909 74.1434 226.578 74.5907C226.27 75.0379 225.844 75.4616 225.347 75.8617C224.827 76.2619 224.354 76.5443 223.904 76.7091C223.454 76.8739 223.123 76.9916 222.886 77.0622C222.366 77.1799 221.845 77.274 221.301 77.2976C220.756 77.3211 220.236 77.3446 219.691 77.3682H209.113ZM218.153 64.2102C218.556 64.2102 218.911 64.1867 219.289 64.1161C219.644 64.0455 219.975 63.8572 220.259 63.5512C220.567 63.2216 220.733 62.8215 220.733 62.3743C220.733 62.2801 220.709 62.1153 220.685 61.927C220.662 61.7387 220.567 61.5269 220.401 61.2915C220.236 61.0561 220.046 60.8913 219.833 60.7737C219.62 60.656 219.384 60.5853 219.124 60.5147C218.863 60.4677 218.603 60.4206 218.343 60.4206C218.082 60.4206 217.822 60.397 217.585 60.397H215.787V67.5527L218.153 64.2102ZM217.514 72.637C218.035 72.637 218.532 72.6134 219.053 72.5193C219.549 72.4487 219.999 72.2133 220.33 71.7896C220.425 71.6954 220.543 71.5071 220.662 71.2718C220.78 71.0364 220.851 70.7068 220.851 70.3538C220.851 70.0478 220.804 69.7888 220.685 69.5535C220.591 69.3181 220.472 69.1298 220.33 68.9885C220.188 68.8238 220.046 68.7061 219.904 68.6119C219.739 68.5178 219.62 68.4472 219.526 68.4001C219.218 68.2353 218.863 68.1412 218.461 68.1176C218.059 68.0941 217.514 68.0705 216.828 68.0705H215.739V72.6605L217.514 72.637Z" fill="#F3EC5E"/>
<path d="M229.607 77.3682V62.1389H235.642V77.3682H229.607ZM235.666 57.7372C235.666 58.1609 235.595 58.5375 235.429 58.8671C235.263 59.1731 235.027 59.4555 234.766 59.6909C234.482 59.9263 234.175 60.0911 233.796 60.2088C233.441 60.3264 233.062 60.3735 232.66 60.3735C232.305 60.3735 231.997 60.3264 231.737 60.2558C231.477 60.1852 231.287 60.1146 231.169 60.0675C230.838 59.9028 230.578 59.7144 230.365 59.5026C230.175 59.2908 230.01 59.0554 229.915 58.8435C229.82 58.6081 229.749 58.3963 229.702 58.1845C229.678 57.9726 229.655 57.8078 229.655 57.6901C229.655 57.2665 229.726 56.9134 229.891 56.5838C230.057 56.2543 230.294 55.9718 230.554 55.76C230.838 55.5246 231.145 55.3599 231.524 55.2422C231.879 55.1245 232.258 55.0774 232.66 55.0774C233.062 55.0774 233.417 55.148 233.772 55.2657C234.127 55.3834 234.435 55.5717 234.719 55.8071C235.003 56.0425 235.216 56.3249 235.382 56.6545C235.571 56.9605 235.666 57.3135 235.666 57.7372Z" fill="#F3EC5E"/>
<path d="M254.976 69.8831C254.929 71.6014 254.479 73.1314 253.604 74.426C252.728 75.7441 251.45 76.6621 249.77 77.227C249.368 77.3447 248.989 77.4389 248.61 77.5095C248.232 77.5801 247.877 77.6272 247.545 77.6507C247.214 77.6743 246.93 77.6978 246.67 77.7213C246.409 77.7213 246.22 77.7449 246.102 77.7449C245.818 77.7449 245.321 77.7213 244.611 77.6743C243.901 77.6272 243.167 77.4624 242.41 77.1564C241.605 76.8504 240.895 76.4503 240.28 75.956C239.665 75.4617 239.144 74.8967 238.742 74.2612C238.34 73.6257 238.008 72.9195 237.795 72.1663C237.582 71.4131 237.464 70.6128 237.464 69.7654C237.464 69.5065 237.488 69.1063 237.535 68.5649C237.582 68 237.724 67.4116 237.985 66.7525C238.34 65.858 238.813 65.1048 239.381 64.4928C239.949 63.8573 240.612 63.3394 241.345 62.9393C242.079 62.5391 242.86 62.2567 243.712 62.0683C244.564 61.88 245.416 61.7859 246.315 61.7859C246.575 61.7859 247.048 61.8094 247.735 61.8565C248.421 61.9036 249.131 62.0683 249.888 62.3273C251.616 62.9157 252.917 63.8808 253.793 65.1989C254.645 66.5171 255.024 68.0706 254.976 69.8831ZM248.681 69.7183C248.705 68.918 248.658 68.2589 248.539 67.7646C248.421 67.2468 248.255 66.8466 248.066 66.5406C247.782 66.0934 247.451 65.8109 247.096 65.7168C246.741 65.6226 246.457 65.5756 246.22 65.5991C246.078 65.5991 245.842 65.6226 245.534 65.6933C245.226 65.7639 244.919 65.9522 244.635 66.2582C244.351 66.5642 244.114 66.9879 243.948 67.5528C243.783 68.0942 243.712 68.8239 243.712 69.7419C243.712 69.8125 243.712 69.9537 243.712 70.1655C243.712 70.3774 243.735 70.6363 243.783 70.9658C243.83 71.2718 243.901 71.6014 243.972 71.9309C244.067 72.2605 244.185 72.5664 244.351 72.8254C244.445 72.9901 244.658 73.202 244.942 73.4609C245.226 73.7198 245.652 73.8375 246.22 73.8375C246.339 73.8375 246.528 73.814 246.788 73.7669C247.048 73.7198 247.309 73.5786 247.545 73.3668C247.948 73.0608 248.232 72.6371 248.397 72.0721C248.587 71.4837 248.681 70.7069 248.681 69.7183Z" fill="#F3EC5E"/>
</g>
<defs>
<clipPath id="clip0_432_1154">
<rect width="246" height="62" fill="white" transform="translate(9 37)"/>
</clipPath>
</defs>
</svg>
