<svg width="263" height="136" viewBox="0 0 263 136" fill="none" xmlns="http://www.w3.org/2000/svg">
<mask id="mask0_432_1234" style="mask-type:luminance" maskUnits="userSpaceOnUse" x="38" y="60" width="20" height="19">
<path d="M38.5941 69.6266C38.5941 74.792 42.7508 78.9674 47.8931 78.9674C53.0354 78.9674 57.192 74.792 57.192 69.6266C57.192 64.4611 53.0354 60.2857 47.8931 60.2857C42.7508 60.2427 38.5941 64.4611 38.5941 69.6266Z" fill="white"/>
</mask>
<g mask="url(#mask0_432_1234)">
<path d="M57.2349 60.2427H38.5941V78.9674H57.2349V60.2427Z" fill="url(#paint0_radial_432_1234)"/>
</g>
<path d="M47.2075 80.3018C50.5071 80.3018 53.3782 79.2687 55.7351 77.8052C51.5356 86.8447 41.7652 93.0863 30.5379 93.0863C15.3682 93.0863 3.11243 81.7223 3.11243 67.6465C3.11243 53.6138 15.3682 42.2068 30.5379 42.2068C42.3223 42.2068 52.564 49.1371 56.335 58.9944C56.335 58.9944 28.7381 58.9944 28.6096 58.9944C22.9531 59.3388 18.5821 64.0307 18.5821 69.6696C18.5821 75.0933 22.6531 79.5701 27.9668 80.2157C28.2668 80.2588 28.6524 80.3018 29.2952 80.3018H47.2075Z" fill="#862573"/>
<path d="M257.013 55.6799C255.127 55.6799 253.713 57.1865 253.713 58.9944C253.713 60.8023 255.17 62.2659 257.013 62.2659H257.055C258.855 62.2228 260.269 60.7593 260.269 58.9944C260.226 57.1865 258.812 55.723 257.013 55.6799ZM257.013 61.8785C255.384 61.8785 254.056 60.5871 254.056 58.9944C254.056 57.3587 255.341 56.1104 256.97 56.1104H257.013C258.598 56.1104 259.841 57.4017 259.841 58.9944C259.841 60.5871 258.598 61.8354 257.013 61.8785ZM257.741 59.3818C257.655 59.2957 257.57 59.2527 257.441 59.2096C257.784 59.1666 258.041 59.0375 258.212 58.8653C258.384 58.7362 258.469 58.4779 258.469 58.2626C258.469 58.0474 258.427 57.8752 258.341 57.7031C258.212 57.5309 258.127 57.4448 257.955 57.4017C257.784 57.3157 257.527 57.2726 257.184 57.2726H257.055H255.641V60.8884H256.113V59.2527H256.67C256.798 59.2527 256.841 59.2527 256.927 59.2957C256.97 59.2957 257.013 59.2957 257.055 59.3388C257.098 59.3388 257.141 59.3818 257.141 59.3818C257.227 59.4249 257.312 59.511 257.398 59.5971C257.484 59.7262 257.57 59.8984 257.741 60.1136L258.212 60.8884H258.812L258.17 59.8984C257.998 59.6401 257.912 59.4679 257.741 59.3818ZM257.098 58.7792H257.013H256.07V57.5739H257.013H257.227C257.484 57.5739 257.698 57.66 257.784 57.7461C257.912 57.8752 257.998 57.9613 257.998 58.1766C257.998 58.3057 257.955 58.3918 257.912 58.4779C257.827 58.607 257.784 58.6501 257.612 58.6931C257.484 58.7792 257.312 58.7792 257.098 58.7792ZM70.9905 56.3687H77.2469L86.0745 76.0403H86.1602L88.7314 56.3687H94.3022L90.4026 84.0468H84.3604L75.4471 64.6334H75.3614L72.7903 84.0468H67.1338L70.9905 56.3687ZM99.3159 56.3687H117.614L116.928 61.491H104.715L103.901 67.4313H115L114.314 72.1663H103.215L102.273 78.9244H114.7L113.971 84.0468H95.4592L99.3159 56.3687ZM178.893 56.3687H197.191L196.505 61.491H184.292L183.478 67.4313H194.577L193.891 72.1663H182.792L181.85 78.9244H194.32L193.591 84.0468H175.079L178.893 56.3687ZM132.269 55.723C139.726 55.723 144.782 59.8123 145.339 67.5604C145.982 76.686 141.14 84.6924 131.498 84.6924C123.785 84.6924 118.985 80.2588 118.428 72.4676C117.785 63.5142 123.013 55.723 132.269 55.723ZM131.198 79.6131C137.155 79.6131 139.683 73.2424 139.297 68.0339C139.04 64.1599 137.112 60.8884 132.655 60.8884C126.441 60.8884 124.085 67.2161 124.427 72.5106C124.727 76.2556 126.827 79.6131 131.198 79.6131ZM150.996 56.3687H160.938C168.608 56.3687 172.893 60.3719 173.365 67.13C174.05 76.7721 169.208 84.0037 158.624 84.0037H147.096L150.996 56.3687ZM153.867 78.9244H158.538C164.709 78.9244 167.794 74.0603 167.408 68.2061C167.151 64.2029 165.266 61.491 160.938 61.491H156.395L153.867 78.9244ZM202.29 56.3687H208.547L217.374 76.0403H217.46L220.031 56.3687H225.602L221.702 84.0468H215.66L206.747 64.6334H206.661L204.09 84.0468H198.433L202.29 56.3687ZM235.715 61.491H227.059L227.787 56.3687H250.756L250.028 61.491H241.757L238.629 84.0468H232.544L235.715 61.491Z" fill="#898989"/>
<defs>
<radialGradient id="paint0_radial_432_1234" cx="0" cy="0" r="1" gradientUnits="userSpaceOnUse" gradientTransform="translate(56.911 60.6404) rotate(-90) scale(23.3862 23.2814)">
<stop stop-color="#E4E4E5"/>
<stop offset="0.1767" stop-color="#E1E1E2"/>
<stop offset="0.3186" stop-color="#D8D7D8"/>
<stop offset="0.4485" stop-color="#C8C6C7"/>
<stop offset="0.5713" stop-color="#B2AFAF"/>
<stop offset="0.689" stop-color="#959190"/>
<stop offset="0.8028" stop-color="#726C6A"/>
<stop offset="0.9116" stop-color="#4A413F"/>
<stop offset="1" stop-color="#231815"/>
</radialGradient>
</defs>
</svg>
