<svg width="263" height="136" viewBox="0 0 263 136" fill="none" xmlns="http://www.w3.org/2000/svg">
<path d="M151.648 82.0712C151.648 85.502 151.648 88.7327 151.648 91.9634C151.648 93.6788 151.534 93.7932 149.769 93.7932C148.859 93.7932 147.976 93.7932 147.066 93.7932C146.041 93.7932 145.472 93.3643 145.472 92.2493C145.472 81.5851 145.5 70.921 145.472 60.2283C145.472 59.342 145.842 58.8559 146.667 58.7702C149.94 58.5129 150.737 58.3699 151.335 61.6292C151.392 61.9437 151.506 62.2582 151.648 62.7156C154.38 59.971 157.483 58.2555 161.325 58.084C168.867 57.7409 173.905 62.3725 174.133 69.9489C174.275 75.2953 172.511 79.784 168.042 82.9003C163.488 86.0738 157.027 85.7307 151.648 82.0712ZM167.473 72.1504C167.274 70.4064 167.217 69.1198 166.932 67.8619C166.391 65.3745 164.997 63.5161 162.407 62.9157C158.251 61.9723 154.921 63.7163 151.933 66.3752C151.676 66.6039 151.648 67.1471 151.648 67.5474C151.619 70.3206 151.705 73.0653 151.619 75.8385C151.563 77.3824 152.189 78.4974 153.441 79.0978C154.978 79.8126 156.572 80.413 158.223 80.756C161.78 81.4994 165.054 79.784 166.42 76.4103C167.017 74.9522 167.217 73.3226 167.473 72.1504Z" fill="#626267"/>
<path d="M78.7564 62.9727C80.3502 61.8577 81.688 60.6855 83.1964 59.885C87.1811 57.7407 91.2797 57.6549 95.2644 59.885C97.3136 61.0286 98.6229 62.9441 98.6514 65.3171C98.7652 71.2639 98.7083 77.2106 98.7368 83.1574C98.7368 84.2153 98.0537 84.5869 97.1713 84.6441C96.1467 84.7299 95.0936 84.7299 94.0405 84.6441C92.7312 84.5583 92.5036 83.6148 92.5036 82.4998C92.5036 77.8682 92.532 73.2652 92.5036 68.6336C92.5036 67.5471 92.3612 66.4607 92.162 65.4029C91.8489 63.8304 90.7389 63.0585 89.2304 62.9441C84.8188 62.5724 81.688 64.8597 78.9556 67.976C78.6994 68.2619 78.7564 68.8623 78.7564 69.3483C78.7564 73.837 78.7564 78.2971 78.7564 82.7857C78.7564 84.4154 78.301 84.9014 76.6502 84.93C72.0962 85.0444 72.4947 84.7013 72.5232 80.9559C72.5516 70.5777 72.5232 60.1995 72.5232 49.8212C72.5232 47.9629 72.7224 47.7341 74.5155 47.3911C74.6009 47.3625 74.6863 47.3339 74.8001 47.3339C78.2156 46.7906 78.7279 47.2195 78.7279 50.6503C78.7564 54.6815 78.7564 58.7414 78.7564 62.9727Z" fill="#616166"/>
<path d="M111.402 63.0586C110.264 59.9994 111.118 58.1411 113.964 57.6265C118.319 56.8259 122.702 56.6258 127.057 57.798C131.212 58.913 133.29 61.5147 133.318 65.9748C133.347 71.3212 133.347 76.639 133.318 81.9853C133.318 82.843 133.603 83.9009 132.436 84.2726C130.842 84.7586 128.764 84.3011 128.337 83.1861C127.74 81.6422 126.943 82.0425 125.947 82.6143C123.129 84.2725 120.083 85.216 116.753 85.0445C110.89 84.7586 106.848 79.2121 108.698 73.8943C109.581 71.3212 111.63 69.8917 113.992 68.8624C117.892 67.147 122.076 67.004 126.231 66.8039C127.797 66.7181 127.939 66.6324 127.626 65.0313C127.256 63.03 126.459 62.2295 124.353 61.8292C120.254 61.0573 116.241 61.6291 112.313 62.8299C112.057 62.8871 111.772 62.9442 111.402 63.0586ZM127.683 70.7208C126.687 70.7208 125.861 70.6636 125.007 70.7208C122.19 70.9209 119.315 70.9495 116.725 72.3504C114.818 73.3797 113.992 74.9807 114.334 77.0678C114.59 78.6403 116.013 79.8697 117.977 80.1556C120.966 80.613 123.67 79.6695 126.231 78.24C127.284 77.6682 127.74 76.7819 127.683 75.5239C127.626 73.9801 127.683 72.4648 127.683 70.7208Z" fill="#626267"/>
<path d="M221.124 72.9507C219.501 72.9507 218.591 71.8643 218.847 70.349C219.786 64.5452 220.782 58.7128 221.778 52.909C222.234 50.2501 222.689 47.5912 223.116 44.9037C223.543 42.1877 225.023 41.4729 227.243 42.9882C235.725 48.8492 244.207 54.7388 252.688 60.6284C252.887 60.7713 253.03 60.9429 253.229 61.0572C254.14 61.6004 254.595 62.3724 254.367 63.4302C254.14 64.4881 253.286 64.774 252.375 65.0027C248.931 65.8604 245.487 66.7181 242.043 67.6044C235.355 69.2912 228.666 71.0066 221.978 72.722C221.665 72.8078 221.295 72.9221 221.124 72.9507ZM224.397 69.7772C224.511 69.7486 224.71 69.6915 224.881 69.6057C231.37 67.1183 237.859 64.631 244.32 62.0865C246.313 61.2859 246.341 60.3711 244.548 59.1417C242.072 57.3977 239.539 55.7109 237.063 53.9669C234.842 52.3944 233.562 52.5945 232.025 54.9389C229.833 58.2554 227.67 61.6004 225.535 64.9455C224.824 66.0605 224.084 67.1755 223.486 68.3477C223.059 69.1482 223.315 69.7772 224.397 69.7772ZM222.063 65.9176C222.433 65.4601 222.518 65.3744 222.575 65.26C224.596 61.143 226.617 57.026 228.581 52.8804C228.951 52.0799 229.122 51.165 229.15 50.2787C229.179 49.2781 228.894 48.1059 227.698 47.9629C226.56 47.82 226.162 48.8492 225.934 49.8213C225.336 52.2515 224.767 54.6816 224.169 57.1404C223.486 59.9136 222.831 62.7154 222.063 65.9176Z" fill="#AB1E3F"/>
<path d="M208.487 79.0689C208.487 82.9572 208.202 83.2431 205.043 83.9579C200.176 85.0157 195.309 85.0729 190.527 83.1859C181.846 79.7551 179.142 69.5484 185.233 62.4866C188.506 58.6841 193.003 57.4833 197.842 57.998C204.787 58.7413 208.6 63.2586 208.6 70.2918C208.6 72.0358 208.259 72.3788 206.551 72.3788C201.086 72.3788 195.65 72.3788 190.185 72.3788C188.649 72.3788 188.449 72.6362 188.762 74.1514C189.531 77.8682 193.032 80.6128 197.216 80.6414C199.094 80.6414 201.001 80.6128 202.88 80.3269C204.758 80.0696 206.551 79.5264 208.487 79.0689ZM188.62 68.4048C192.946 68.4048 197.216 68.4334 201.456 68.3762C201.741 68.3762 202.225 67.8616 202.253 67.5471C202.367 65.5744 201.086 63.3157 199.151 62.7439C197.557 62.2579 195.821 62.0578 194.17 62.2007C191.011 62.458 188.791 65.0312 188.62 68.4048Z" fill="#616166"/>
<path d="M53.3398 57.9409C54.9622 58.1696 56.6414 58.284 58.2353 58.6557C59.8861 59.0273 60.8254 60.6856 60.2561 62.2867C60.1423 62.6297 59.3169 62.9442 58.8615 62.9156C56.8407 62.7155 54.8483 62.2581 52.8275 62.1151C51.6321 62.0579 50.3228 62.2295 49.2413 62.7155C48.4728 63.0586 47.6474 64.0021 47.5051 64.8312C47.3913 65.4602 48.1313 66.6038 48.7574 66.9183C51.1767 68.0905 53.7098 69.0053 56.186 70.0632C57.4668 70.635 58.7761 71.2354 59.943 72.0359C63.8708 74.7234 63.8423 79.8696 59.8861 82.5285C56.7553 84.6442 53.1975 85.4161 49.469 85.073C47.2205 84.8729 44.972 84.3869 42.7235 84.1296C41.4711 83.9866 40.9873 83.4148 40.8734 82.1283C40.6457 79.0691 40.6742 79.0405 43.5204 79.8696C46.8505 80.8417 50.1805 81.6994 53.6814 80.6988C55.076 80.2985 56.1007 79.4694 56.2999 78.0113C56.4991 76.6103 55.6737 75.6669 54.4499 75.1237C51.7175 73.9229 48.9567 72.8079 46.2812 71.5499C45.1143 71.0067 43.9758 70.2633 42.9796 69.4056C40.5034 67.2614 40.475 63.4588 42.8373 61.2002C45.2566 58.8844 48.302 58.3126 51.4613 58.0839C52.0875 58.0553 52.6852 58.0839 53.3114 58.0839C53.3398 58.0267 53.3398 57.9981 53.3398 57.9409Z" fill="#626267"/>
<path d="M9.7643 63.1156C9.79277 62.7154 9.84969 62.3151 9.87815 61.8863C10.1343 58.7985 10.2197 58.627 13.2082 58.2267C17.5345 57.6549 21.8892 57.4833 26.13 58.9415C27.0123 59.2559 27.9231 59.6562 28.6347 60.2566C31.8224 62.9155 30.9686 66.9467 26.7846 68.9766C25.9877 69.3769 25.1338 69.6914 24.1092 70.1203C25.0769 70.4347 25.9023 70.6635 26.6992 70.978C28.9762 71.8643 30.9401 73.0936 31.5663 75.7239C32.2209 78.3828 31.2816 80.4985 29.2324 82.1281C26.4146 84.3582 22.9992 84.8728 19.5837 84.93C16.6521 84.9871 13.7205 84.6155 10.8174 84.3582C10.3905 84.3296 9.73584 83.8721 9.62199 83.5004C9.36583 82.4712 9.36583 81.4134 9.33737 80.3555C9.33737 80.2983 10.0774 80.0982 10.4474 80.1554C12.4113 80.4413 14.3467 80.9845 16.339 81.0989C18.3314 81.2132 20.3807 81.0703 22.373 80.7558C24.5077 80.4127 25.6746 79.1261 25.7885 77.4965C25.9023 75.7525 24.7923 73.8941 22.8853 73.3795C20.8076 72.8363 18.616 72.6362 16.4814 72.4075C14.8306 72.2359 14.5459 72.0072 14.4605 70.3775C14.4036 68.9766 15.0298 68.5764 16.339 68.5478C18.1322 68.5192 19.9822 68.5192 21.6899 68.0617C22.7999 67.7472 23.9669 66.861 24.65 65.8889C25.5323 64.6595 24.9631 63.3443 23.4546 62.6582C20.9784 61.5146 18.3599 61.6575 15.7698 62.0006C13.749 62.1722 11.7851 62.6868 9.7643 63.1156Z" fill="#636368"/>
</svg>
