<svg width="263" height="136" viewBox="0 0 263 136" fill="none" xmlns="http://www.w3.org/2000/svg">
<path d="M182.094 56.5917C184.41 56.5917 186.65 56.5917 189.016 56.5917C189.016 58.842 189.016 61.1176 189.016 63.6967C191.836 63.545 194.579 63.6461 197.197 63.1657C199.588 62.7106 200.771 60.1315 200.369 57.2997C200.016 54.6701 198.254 53.0266 195.485 52.9507C191.508 52.8749 187.531 52.9001 183.529 52.9001C183.076 52.9001 182.623 52.9001 182.094 52.9001C182.094 50.8774 182.094 48.9811 182.094 46.9836C182.447 46.9583 182.749 46.9077 183.076 46.9077C188.01 46.9836 192.968 46.8824 197.902 47.1606C201.099 47.3376 203.918 48.7282 205.831 51.4842C209.38 56.617 207.618 64.2529 202.231 67.2871C202.005 67.4135 201.803 67.5399 201.451 67.7422C203.943 72.6474 206.435 77.502 209.053 82.6095C206.41 82.6095 203.993 82.6348 201.577 82.5842C201.3 82.5842 200.922 82.1038 200.746 81.7751C198.884 78.0583 197.021 74.3415 195.234 70.5741C194.856 69.8155 194.453 69.5121 193.623 69.5627C192.163 69.6385 190.703 69.588 189.117 69.588C189.117 73.9622 189.117 78.2353 189.117 82.559C186.701 82.559 184.41 82.559 182.094 82.559C182.094 73.9116 182.094 65.2896 182.094 56.5917Z" fill="#040404"/>
<path d="M58 71.4842C60.4668 71.4842 62.7825 71.4842 65.0983 71.4842C65.9289 76.4399 70.1577 78.7661 74.8396 76.8698C76.224 76.3135 77.1805 75.378 77.3315 73.8104C77.5077 72.1163 77.0295 70.6245 75.4689 69.8407C73.5558 68.8798 71.517 68.2225 69.5788 67.3375C67.5147 66.402 65.35 65.6181 63.5125 64.3539C56.9428 59.8533 57.6224 51.1806 64.8718 47.9442C70.1074 45.618 75.4437 45.6686 80.3521 49.0315C83.2216 50.9784 84.4802 53.8861 84.5557 57.4512C82.1644 57.4512 79.8487 57.4512 77.5329 57.4512C77.2057 53.5574 74.462 51.4588 69.2012 52.7483C67.6154 53.1276 66.5582 54.2148 66.2813 55.8836C66.0045 57.6282 66.8351 58.9177 68.3202 59.5751C70.7618 60.6876 73.3293 61.4968 75.7457 62.6093C77.4826 63.3931 79.2194 64.3033 80.78 65.4159C86.0156 69.1074 86.4183 79.1454 78.4642 82.0026C72.3728 84.177 66.4575 83.7219 61.2974 79.373C58.9817 77.4008 58.0755 74.6447 58 71.4842Z" fill="#040404"/>
<path d="M87.6769 65.8204C89.8164 65.8204 91.8301 65.8204 94.02 65.8204C94.02 69.3096 94.02 72.7989 94.02 76.3387C96.1596 76.3387 98.123 76.4146 100.061 76.3135C101.471 76.2376 102.528 75.3779 103.031 74.0884C104.164 71.206 104.34 68.273 103.283 65.34C102.503 63.216 100.942 62.1541 98.6264 62.1794C95.0269 62.2047 91.4274 62.1794 87.7524 62.1794C87.7524 60.1566 87.7524 58.235 87.7524 56.1111C88.1803 56.1111 88.6334 56.1111 89.0613 56.1111C92.6608 56.1111 96.2855 56.1111 99.8849 56.1111C105.7 56.1111 108.997 58.6143 110.281 64.3033C111.237 68.6522 111.237 73.0264 109.223 77.1478C107.512 80.6877 104.642 82.5335 100.665 82.5082C98.5005 82.4829 96.3106 82.5082 94.02 82.5082C94.02 86.1239 94.02 89.6384 94.02 93.3552C91.9308 92.3691 89.9926 91.4842 88.1048 90.5234C87.8783 90.4222 87.7021 89.9924 87.7021 89.7143C87.6769 81.8002 87.6769 73.8861 87.6769 65.8204Z" fill="#040404"/>
<path d="M239.132 56.2128C240.643 61.4214 242.178 66.7058 243.714 71.9903C243.789 71.9903 243.89 72.0156 243.965 72.0156C244.292 70.9284 244.645 69.8159 244.947 68.7286C246.054 64.8601 247.187 60.9662 248.27 57.0724C248.471 56.3392 248.773 56.061 249.578 56.061C251.668 56.1116 253.732 56.0863 255.997 56.0863C254.99 59.0699 254.084 61.8512 253.153 64.6325C250.761 71.7628 248.37 78.893 245.929 86.0232C245.526 87.2116 245.022 88.3747 244.418 89.4873C243.21 91.6112 241.398 93.0524 238.931 93.2293C236.615 93.4063 234.274 93.2547 231.782 93.2547C232.613 91.4342 233.393 89.6895 234.249 87.9702C234.375 87.7173 234.929 87.5403 235.281 87.5403C239.309 87.5403 239.585 85.821 240.567 82.9638C240.718 82.534 240.416 81.9272 240.265 81.4215C237.496 73.1787 234.702 64.9359 231.908 56.6679C231.858 56.5414 231.858 56.4403 231.808 56.1875C234.224 56.2127 236.615 56.2128 239.132 56.2128Z" fill="#050505"/>
<path d="M224.181 66.402C224.608 63.4184 223.702 61.4968 221.739 61.0417C219.121 60.4601 217.56 61.3704 216.705 64.0505C214.515 64.0505 212.3 64.0505 209.984 64.0505C209.984 61.5474 211.066 59.651 212.879 58.1592C216.302 55.3526 222.821 54.7711 226.723 56.895C229.592 58.4626 231.128 60.9405 231.178 64.1769C231.279 70.4475 231.203 76.7181 231.203 83.0898C230.876 83.1151 230.549 83.1909 230.222 83.1909C226.245 83.1909 222.242 83.2162 218.265 83.1909C214.842 83.1656 211.972 82.0026 210.261 78.8926C207.794 74.3919 209.984 68.9051 215.043 67.4386C217.535 66.7054 220.229 66.7307 222.846 66.4272C223.3 66.3514 223.753 66.402 224.181 66.402ZM224.281 70.6498C223.023 70.6498 221.84 70.5234 220.682 70.7003C219.625 70.8521 218.517 71.1807 217.661 71.737C216.377 72.5714 216.101 73.9621 216.377 75.4286C216.629 76.6675 217.661 77.5777 219.096 77.6536C220.782 77.7547 222.494 77.6789 224.256 77.6789C224.281 75.3274 224.281 73.0771 224.281 70.6498Z" fill="#040404"/>
<path d="M163.845 82.5843C161.605 82.5843 159.39 82.5843 157.024 82.5843C157.024 82.1291 157.024 81.674 157.024 81.2442C157.024 76.3137 157.024 71.3832 157.024 66.4527C157.024 66.1999 157.024 65.947 157.024 65.6942C156.948 64.1266 156.898 62.4578 155.136 61.7751C153.172 60.9913 151.209 61.1177 149.649 62.6853C149.095 63.2416 148.692 64.2024 148.667 64.9862C148.591 70.4224 148.616 75.8586 148.616 81.2948C148.616 81.6993 148.616 82.1291 148.616 82.6095C146.301 82.6095 144.111 82.6095 141.82 82.6095C141.82 73.8105 141.82 65.0621 141.82 56.2125C143.909 56.2125 145.999 56.2125 148.163 56.2125C148.239 57.0722 148.34 57.9318 148.44 58.9685C149.07 58.4122 149.497 57.9318 150.026 57.5273C152.896 55.3781 156.067 55.1505 159.339 56.2883C161.605 57.0721 162.788 58.9179 163.342 61.143C163.669 62.4072 163.87 63.722 163.87 65.0115C163.921 70.65 163.895 76.2884 163.895 81.9269C163.921 82.1039 163.87 82.3061 163.845 82.5843Z" fill="#030303"/>
<path d="M7.00293 66.554C13.4971 66.554 19.8906 66.554 26.3596 66.554C26.3596 73.2544 26.3596 79.8789 26.3596 86.5794C19.8906 86.5794 13.4971 86.5794 7.00293 86.5794C7.00293 79.9042 7.00293 73.2797 7.00293 66.554Z" fill="#A72839"/>
<path d="M49.0893 42.9885C49.0893 49.6889 49.0893 56.2882 49.0893 62.9886C42.6454 62.9886 36.2519 62.9886 29.7829 62.9886C29.7829 56.3388 29.7829 49.7142 29.7829 42.9885C36.1764 42.9885 42.5699 42.9885 49.0893 42.9885Z" fill="#A72737"/>
<path d="M178.671 76.7688C178.671 78.7915 178.671 80.6373 178.671 82.8118C176.229 82.6095 173.788 82.6854 171.472 82.1797C168.753 81.5981 167.243 79.0697 167.218 75.631C167.142 70.1948 167.193 64.7586 167.193 59.3224C167.193 57.1227 167.218 54.9482 167.168 52.7484C167.142 51.9393 167.419 51.5601 168.124 51.2314C170.037 50.3211 171.925 49.335 174.014 48.2478C174.014 51.0797 174.014 53.7345 174.014 56.4906C175.625 56.4906 177.085 56.4906 178.621 56.4906C178.621 58.2352 178.621 59.904 178.621 61.6992C177.161 61.6992 175.675 61.6992 174.039 61.6992C174.039 62.66 174.039 63.4944 174.039 64.3288C174.039 67.3124 174.039 70.3212 174.039 73.3048C174.039 76.3137 174.467 76.7435 177.437 76.7688C177.79 76.7688 178.167 76.7688 178.671 76.7688Z" fill="#040404"/>
<path d="M29.7325 66.478C33.1558 67.363 36.3526 68.1974 39.5493 69.0065C41.1603 69.4363 42.7964 69.8156 44.4074 70.296C44.8101 70.4224 45.3136 70.827 45.4142 71.181C46.698 76.2379 47.881 81.2948 49.1648 86.6045C48.4096 86.4023 47.8307 86.2506 47.2517 86.0988C43.0985 84.9863 38.9201 83.8232 34.7416 82.736C33.9361 82.5337 33.6089 82.1544 33.4075 81.3453C32.2748 76.693 31.0666 72.0406 29.8836 67.3883C29.8332 67.2113 29.8081 66.9584 29.7325 66.478Z" fill="#A72838"/>
<path d="M26.2589 63.0899C21.275 61.7246 16.4169 60.435 11.584 59.0697C11.2568 58.9685 10.8792 58.5893 10.8037 58.2606C9.52 53.3807 8.31178 48.4755 7.07839 43.5703C7.05322 43.4438 7.07839 43.3174 7.07839 43.0898C7.43078 43.1404 7.73284 43.1151 8.0349 43.191C12.5406 44.3541 17.0462 45.5172 21.5519 46.7308C21.9798 46.8573 22.5587 47.2871 22.6594 47.6663C23.918 52.5968 25.0758 57.5526 26.2841 62.5084C26.2841 62.6348 26.2589 62.7612 26.2589 63.0899Z" fill="#A72838"/>
<path d="M120.651 82.5841C118.361 82.5841 116.145 82.5841 113.855 82.5841C113.855 73.7851 113.855 65.0113 113.855 56.187C115.944 56.187 118.033 56.187 120.248 56.187C120.324 57.0214 120.399 57.8558 120.475 58.9683C120.903 58.4374 121.18 58.1087 121.431 57.8053C123.068 55.9089 125.157 55.3526 127.548 55.8078C127.825 55.8583 128.228 56.3135 128.228 56.5916C128.278 58.6144 128.253 60.6118 128.253 62.6346C127.296 62.6346 126.415 62.5335 125.559 62.6599C124.452 62.8116 123.294 62.9886 122.312 63.469C121.18 64 120.55 64.9861 120.55 66.402C120.601 71.3325 120.576 76.2377 120.576 81.1682C120.651 81.598 120.651 82.0532 120.651 82.5841Z" fill="#040404"/>
<path d="M138.447 56.1111C138.447 65.0365 138.447 73.7344 138.447 82.5587C136.182 82.5587 133.967 82.5587 131.651 82.5587C131.626 82.2048 131.575 81.8508 131.575 81.4715C131.575 74.5435 131.601 67.5903 131.55 60.6623C131.55 59.8279 131.777 59.3728 132.532 59.0188C134.47 58.1086 136.358 57.1478 138.447 56.1111Z" fill="#030303"/>
<path d="M138.472 46.1494C138.472 48.3239 138.472 50.3214 138.447 52.3189C138.447 52.5211 138.296 52.8245 138.12 52.9004C136.006 53.9623 133.866 54.9737 131.55 56.0863C131.55 53.9624 131.525 52.0407 131.575 50.1191C131.575 49.8409 131.802 49.4617 132.029 49.3353C134.118 48.2986 136.207 47.2872 138.472 46.1494Z" fill="#070707"/>
</svg>
