<svg width="263" height="136" viewBox="0 0 263 136" fill="none" xmlns="http://www.w3.org/2000/svg">
<g clip-path="url(#clip0_432_1123)">
<path d="M242.002 57.6363H234.869V77.9545H242.002V67.4545C242.002 64.8636 242.81 62.6818 245.636 62.6818C249.136 62.6818 248.866 66.0908 248.866 67.9999V77.8181H256V65.2727C256 60.3636 253.846 56.8181 248.463 56.8181C245.636 56.8181 243.617 57.6363 242.002 60.0908V57.6363Z" fill="#36393A"/>
<path d="M217.641 57.6363H210.507V77.9545H217.641V67.4545C217.641 64.8636 218.448 62.6818 221.409 62.6818C224.909 62.6818 224.639 66.0908 224.639 67.9999V77.8181H231.773V65.2727C231.773 60.3636 229.619 56.8181 224.236 56.8181C221.409 56.8181 219.39 57.6363 217.775 60.0908H217.641V57.6363Z" fill="#36393A"/>
<path d="M207.681 57.6364H200.547V59.5455C199.066 57.7728 196.644 56.9546 194.356 56.9546C188.433 56.9546 184.261 61.8637 184.261 67.7273C184.261 73.591 188.433 78.6364 194.356 78.6364C196.644 78.6364 199.066 77.6819 200.412 75.6364H200.547V77.8182H207.681V57.6364ZM196.375 63.2273C199.201 63.2273 200.951 65.2728 200.951 67.7273C200.951 70.3182 199.201 72.3637 196.375 72.3637C193.413 72.3637 191.798 70.4546 191.798 67.7273C191.798 65.2728 193.548 63.2273 196.375 63.2273Z" fill="#36393A"/>
<path d="M155.996 57.6363H148.863V77.9545H155.996V68.2726C155.996 66.0908 155.996 62.5454 159.092 62.5454C162.322 62.5454 162.322 66.0908 162.322 68.2726V77.9545H169.456V68.2726C169.456 65.9545 169.59 62.6817 172.955 62.6817C175.916 62.6817 175.916 66.2272 175.916 68.2726V77.9545H183.05V65.1363C183.05 60.3635 181.3 57.0908 176.185 57.0908C173.493 57.0908 170.802 58.4545 169.456 61.0454C167.975 58.3181 165.552 57.0908 162.591 57.0908C160.034 57.0908 157.881 58.0454 156.265 60.2272H156.131V57.6363H155.996Z" fill="#36393A"/>
<path d="M124.77 57.6362V69.909C124.77 76.5908 129.481 78.7726 135.538 78.7726C141.595 78.7726 146.305 76.5908 146.305 69.909V57.6362H139.172V68.5453C139.172 71.1362 138.499 72.909 135.672 72.909C132.711 72.909 132.173 71.1362 132.173 68.5453V57.6362H124.77Z" fill="#36393A"/>
<path d="M121.54 57.6364H114.406V59.5455C112.926 57.7728 110.503 56.9546 108.215 56.9546C102.293 56.9546 98.1205 61.8637 98.1205 67.7273C98.1205 73.591 102.293 78.6364 108.215 78.6364C110.503 78.6364 112.926 77.6819 114.272 75.6364H114.406V77.8182H121.54V57.6364ZM110.099 63.2273C113.06 63.2273 114.676 65.2728 114.676 67.7273C114.676 70.3182 112.926 72.3637 110.099 72.3637C107.273 72.3637 105.523 70.4546 105.523 67.7273C105.523 65.2728 107.273 63.2273 110.099 63.2273Z" fill="#36393A"/>
<path d="M90.5832 57.6363H83.4497V77.9544H90.5832V69.7726C90.5832 66.2272 91.5254 63.6363 95.4286 63.6363C96.5054 63.6363 97.5821 63.7726 98.5243 64.3181V57.3635H97.1784C94.3519 57.3635 92.0638 58.4544 90.7178 60.909H90.5832V57.6363Z" fill="#36393A"/>
<path d="M79.008 63.6364H83.0459V57.6364H79.008V51.5H72.0091V57.6364H69.5864V63.6364H72.0091V77.9545H79.008V63.6364Z" fill="#36393A"/>
<path d="M68.3751 58.3182C66.2216 57.3637 64.0681 56.9546 61.78 56.9546C57.3384 56.9546 52.8967 59.1364 52.8967 64.1819C52.8967 67.8637 55.1849 68.9546 57.3384 69.6364C59.6265 70.1819 61.78 70.3182 61.78 71.9546C61.78 73.0455 60.434 73.4546 59.4919 73.4546C57.7422 73.4546 55.3195 72.3637 53.8389 71.2728L51.2816 76.3182C53.7043 77.8182 56.5308 78.6364 59.3573 78.6364C64.0681 78.6364 68.7789 76.4546 68.7789 71C68.7789 67.3182 66.2216 65.6819 62.9913 65C62.0492 64.8637 59.7611 64.591 59.7611 63.2273C59.7611 62.2728 61.2416 61.8637 62.0492 61.8637C63.2605 61.8637 64.7411 62.2728 65.8178 62.8182L68.3751 58.3182Z" fill="#36393A"/>
<path d="M45.7632 40.0454C35.3994 47 25.0356 54.0909 14.6719 61.0454C10.0956 64.5909 10.2302 70.0454 13.3259 74.5454L45.6286 52.5909L45.7632 40.0454Z" fill="#36393A"/>
<path d="M7.53833 94.5908C17.9021 87.6363 28.2659 80.5454 38.6297 73.5908C43.2059 70.0454 43.0713 64.5908 39.9756 60.0908L7.67292 82.0454L7.53833 94.5908Z" fill="#36393A"/>
</g>
<defs>
<clipPath id="clip0_432_1123">
<rect width="249" height="60" fill="white" transform="translate(7 38)"/>
</clipPath>
</defs>
</svg>
