<svg width="263" height="136" viewBox="0 0 263 136" fill="none" xmlns="http://www.w3.org/2000/svg">
<path opacity="0.984" fill-rule="evenodd" clip-rule="evenodd" d="M14.7839 42.2068C18.1401 42.2068 21.4963 42.2068 24.8525 42.2068C29.8428 47.3764 34.9161 52.4725 40.0724 57.4952C45.2287 52.4725 50.302 47.3764 55.2923 42.2068C58.6484 42.2068 62.0048 42.2068 65.3609 42.2068C65.3609 59.1417 65.3609 76.0765 65.3609 93.0114C62.0827 93.0114 58.8046 93.0114 55.5265 93.0114C55.5656 80.7021 55.5265 68.3928 55.4094 56.084C50.4531 61.0625 45.497 66.041 40.5407 71.0196C40.1504 71.1765 39.7603 71.1765 39.3699 71.0196C34.4918 66.1195 29.6136 61.2193 24.7354 56.3192C24.6183 68.5497 24.5793 80.7804 24.6183 93.0114C21.3402 93.0114 18.0621 93.0114 14.7839 93.0114C14.7839 76.0765 14.7839 59.1417 14.7839 42.2068Z" fill="#004EEC"/>
<path opacity="0.982" fill-rule="evenodd" clip-rule="evenodd" d="M78.7075 42.2068C91.4297 42.2068 104.152 42.2068 116.874 42.2068C116.874 45.2645 116.874 48.3222 116.874 51.3798C107.43 51.3798 97.986 51.3798 88.5419 51.3798C88.5419 55.2215 88.5419 59.0633 88.5419 62.905C97.3617 62.905 106.181 62.905 115.001 62.905C115.001 65.9626 115.001 69.0203 115.001 72.078C106.181 72.078 97.3617 72.078 88.5419 72.078C88.5419 75.9982 88.5419 79.9181 88.5419 83.8383C97.986 83.8383 107.43 83.8383 116.874 83.8383C116.874 86.896 116.874 89.9537 116.874 93.0114C104.152 93.0114 91.4297 93.0114 78.7075 93.0114C78.7075 76.0765 78.7075 59.1417 78.7075 42.2068Z" fill="#004EEC"/>
<path opacity="0.984" fill-rule="evenodd" clip-rule="evenodd" d="M130.221 42.2068C137.09 42.2068 143.958 42.2068 150.827 42.2068C159.474 43.2756 166.225 47.4309 171.081 54.6727C175.807 63.9529 175.495 73.0475 170.144 81.9567C165.223 88.2906 158.784 91.9753 150.827 93.0114C143.958 93.0114 137.09 93.0114 130.221 93.0114C130.221 76.0765 130.221 59.1417 130.221 42.2068ZM140.056 51.3798C143.569 51.3407 147.081 51.3799 150.592 51.4974C157.224 52.5943 161.634 56.3184 163.822 62.6697C165.349 68.4467 164.334 73.6998 160.778 78.4286C158.021 81.4009 154.626 83.1649 150.592 83.7207C147.081 83.8383 143.569 83.8776 140.056 83.8383C140.056 73.0188 140.056 62.1993 140.056 51.3798Z" fill="#004EEC"/>
<path opacity="0.971" fill-rule="evenodd" clip-rule="evenodd" d="M185.247 42.2068C188.603 42.2068 191.959 42.2068 195.315 42.2068C195.315 59.1417 195.315 76.0765 195.315 93.0114C191.959 93.0114 188.603 93.0114 185.247 93.0114C185.247 76.0765 185.247 59.1417 185.247 42.2068Z" fill="#004EEC"/>
<path opacity="0.983" fill-rule="evenodd" clip-rule="evenodd" d="M205.852 42.2068C220.214 42.2068 234.575 42.2068 248.936 42.2068C248.936 45.2645 248.936 48.3222 248.936 51.3798C243.473 51.3798 238.009 51.3798 232.546 51.3798C232.546 65.257 232.546 79.1342 232.546 93.0114C229.19 93.0114 225.833 93.0114 222.477 93.0114C222.477 79.1342 222.477 65.257 222.477 51.3798C216.935 51.3798 211.394 51.3798 205.852 51.3798C205.852 48.3222 205.852 45.2645 205.852 42.2068Z" fill="#004EEC"/>
</svg>
