<svg width="263" height="136" viewBox="0 0 263 136" fill="none" xmlns="http://www.w3.org/2000/svg">
<g clip-path="url(#clip0_432_991)">
<path d="M82.8167 62.4962L83.0253 62.5648C83.2339 62.6334 88.0675 64.1079 92.1361 64.1079C96.4132 64.1079 100.76 62.3933 104.098 59.3757C107.089 56.6667 108.758 52.9289 108.758 48.8482C108.758 44.7332 107.124 40.9955 104.133 38.2864C101.108 35.5431 96.8305 34 92.1361 34H82.8167V62.4962ZM92.1013 60.5073C89.7367 60.5073 87.685 60.0958 86.92 59.9244L86.8156 59.8901V37.5663H92.1013C99.4386 37.5663 104.55 42.1614 104.55 48.7453C104.585 55.4322 99.1952 60.5073 92.1013 60.5073Z" fill="black"/>
<path d="M122.702 41.2012C119.607 41.2012 116.756 42.4014 114.704 44.5617C112.653 46.6878 111.54 49.5683 111.54 52.6202C111.54 55.8779 112.722 58.7241 114.948 60.8502C117.069 62.9077 119.99 64.0393 123.154 64.0393C127.084 64.0393 130.005 62.7705 132.717 59.9243L132.926 59.7186L130.387 57.5925L130.213 57.764C128.196 59.7872 125.971 60.713 123.259 60.713C119.19 60.713 116.2 58.1755 115.608 54.2662L115.574 54.1291H133.517L133.552 53.889C133.586 53.5118 133.586 53.1689 133.586 52.8603C133.586 49.6369 132.578 46.7221 130.735 44.6303C128.753 42.3671 125.971 41.2012 122.702 41.2012ZM129.553 51.18H115.539L115.574 51.0428C116.165 47.065 119.016 44.4246 122.633 44.4246C125.588 44.4246 128.962 46.1734 129.553 51.0428V51.18Z" fill="black"/>
<path d="M153.929 63.5936H157.859V49.9799C157.859 47.3737 157.024 45.1448 155.494 43.5674C153.894 41.9557 151.634 41.0984 148.887 41.0984C142.071 41.0984 137.759 43.3959 137.585 43.4988L137.446 43.5674V63.5593H141.376V45.8306L141.445 45.7963C143.462 44.9047 145.375 44.5275 147.913 44.5275C149.791 44.5275 151.321 45.1105 152.364 46.1735C153.373 47.2366 153.929 48.814 153.929 50.7343V63.5936Z" fill="black"/>
<path d="M196.11 70.2462H200.039V62.5649L200.213 62.6335C203.065 63.7308 204.977 64.0737 207.898 64.0737C214.401 64.0737 218.435 59.6844 218.435 52.5861C218.435 49.054 217.357 46.1393 215.305 44.1504C213.288 42.1957 210.367 41.167 206.855 41.167C200.978 41.167 196.458 43.4645 196.284 43.5674L196.145 43.636L196.11 70.2462ZM207.829 60.6445C205.325 60.6445 203.134 60.3359 199.97 58.7242L199.9 58.6899V45.9678L199.97 45.9335C200.596 45.6249 202.926 44.5618 206.507 44.5618C211.723 44.5618 214.366 47.2709 214.366 52.6203C214.366 57.7984 212.036 60.6445 207.829 60.6445Z" fill="black"/>
<path d="M199.552 78.8875C192.493 78.8875 187.938 83.3796 187.938 90.3408C187.938 93.8042 188.912 96.719 190.789 98.7765C192.563 100.731 195.101 101.828 197.918 101.828C200.804 101.828 203.03 101.28 206.159 99.8053L206.333 99.7367V101.383H210.263V81.3907L210.124 81.3221C209.95 81.2193 205.464 78.8875 199.552 78.8875ZM198.544 98.4336C196.458 98.4336 194.823 97.7478 193.676 96.3418C192.563 94.9702 191.972 92.9127 191.972 90.4094C191.972 83.7226 196.284 82.3509 199.865 82.3509C203.482 82.3509 205.777 83.4139 206.403 83.7226L206.472 83.7568V95.8617L206.403 95.896C203.447 97.6106 200.943 98.4336 198.544 98.4336Z" fill="black"/>
<path d="M221.947 63.5936H225.876V35.0974H221.947V63.5936Z" fill="black"/>
<path d="M230.293 69.1488L230.536 69.2517C232.24 70.0404 233.666 70.349 235.474 70.349C239.091 70.349 241.351 68.5316 243.298 64.108L253 41.5442H248.792L241.664 59.0328L233.596 41.5442H229.25L239.716 63.2164L239.682 63.2507C238.43 65.9597 237.282 66.9542 235.335 66.9542C233.979 66.9542 233.005 66.7484 231.892 66.1998L231.649 66.0626L230.293 69.1488Z" fill="black"/>
<path d="M81.3213 96.8907L81.5299 97.0621C85.3551 100.286 89.3888 101.794 94.2919 101.794C97.3868 101.794 100.064 101.006 102.012 99.4968C104.029 97.9537 105.072 95.7933 105.072 93.2558C105.072 88.7636 102.012 86.1917 94.8483 84.7172C87.9631 83.3112 86.7112 81.8024 86.7112 79.2991C86.7112 76.6587 89.2845 74.8412 92.9705 74.8412C96.1697 74.8412 98.9169 75.8357 101.664 77.9275L101.873 78.0989L104.237 75.1499L104.029 74.9784C100.69 72.4408 97.3868 71.3435 93.0401 71.3435C87.0242 71.3435 82.6427 74.8069 82.6427 79.5735C82.6427 82.0767 83.4773 83.8599 85.2507 85.2658C86.8851 86.5346 89.4236 87.4948 93.1792 88.2835C99.7515 89.5866 100.969 91.0954 100.969 93.5644C100.969 96.3763 98.3257 98.2623 94.3963 98.2623C90.3973 98.2623 87.4067 97.0964 84.0336 94.2159L83.825 94.0445L81.3213 96.8907Z" fill="black"/>
<path d="M146.696 78.8875C139.88 78.8875 134.56 83.9626 134.56 90.4094C134.56 96.8219 139.846 101.863 146.627 101.863C149.965 101.863 153.06 100.663 155.355 98.4336C157.58 96.2732 158.832 93.3927 158.832 90.3408C158.763 83.9283 153.477 78.8875 146.696 78.8875ZM146.696 98.4679C142.141 98.4679 138.594 94.9016 138.594 90.3408C138.594 88.1119 139.394 86.0887 140.819 84.6141C142.28 83.1053 144.332 82.2823 146.627 82.2823C151.217 82.2823 154.798 85.8486 154.798 90.4437C154.798 92.6383 153.999 94.6615 152.538 96.1361C151.008 97.6106 148.956 98.4679 146.696 98.4679Z" fill="black"/>
<path d="M179.523 101.383H183.452V87.7689C183.452 85.1628 182.618 82.9338 181.088 81.3564C179.488 79.7447 177.228 78.8875 174.481 78.8875C167.665 78.8875 163.353 81.185 163.179 81.2879L163.04 81.3564V101.383H166.969V83.654L167.039 83.6197C169.056 82.7281 170.968 82.3509 173.507 82.3509C175.385 82.3509 176.915 82.9338 177.958 83.9969C178.966 85.0599 179.523 86.6373 179.523 88.5577V101.383Z" fill="black"/>
<path d="M109.94 101.383H113.87V79.3677H109.94V101.383Z" fill="black"/>
<path d="M119.816 101.383H123.745V83.4139L123.78 83.3796C124.789 82.6938 126.249 82.248 127.71 82.248C130.109 82.248 131.535 83.0367 132.926 83.7911L133.343 84.0312L135.047 80.9449L134.803 80.8078C132.647 79.6076 130.77 78.8875 127.71 78.8875C122.772 78.8875 120.025 80.8764 119.92 80.9449L119.816 81.0135V101.383Z" fill="black"/>
<path d="M163.005 35.0974V57.867C163.005 60.0616 163.631 61.7076 164.813 62.7363C165.996 63.7651 167.421 63.9708 168.43 63.9708C169.682 63.9708 170.829 63.7308 171.977 63.2164L170.794 60.1645C170.273 60.4045 169.786 60.5417 169.299 60.5417C168.256 60.5417 166.935 60.5417 166.935 57.4555V44.9391H170.864V41.5785H166.935V35.0974H163.005Z" fill="black"/>
<path d="M109.871 76.6585H114.078V72.8865H109.871V76.6585Z" fill="black"/>
<path d="M25.5092 34C47.3125 34 62.6826 47.648 62.5782 67.2284C62.5435 71.5492 61.9871 73.881 61.1525 77.0358C57.8142 67.9486 48.3557 64.3137 34.0636 61.3646C13.547 56.5295 10.7651 52.0373 10.0696 45.7963V34.0343C10.0349 34.0343 25.5788 34 25.5092 34Z" fill="black"/>
<path d="M52.7371 87.8377C52.7371 80.5679 48.7729 77.0359 30.4471 73.1266C19.3542 70.7605 14.5902 68.8059 10 65.1367V95.999C16.1898 99.7368 25.0223 102 29.6473 102C45.226 102 52.7371 95.2789 52.7371 87.8377Z" fill="black"/>
<path d="M174.307 60.6446L174.515 60.816C177.089 62.8049 180.775 64.0394 184.078 64.0394C186.408 64.0394 188.494 63.4222 189.99 62.2906C191.589 61.0904 192.459 59.3758 192.459 57.3183V57.2497C192.459 52.9633 187.938 51.6945 184.982 50.8372L184.913 50.8029C182.061 49.9799 179.349 49.1912 179.349 47.4081V47.3395C179.349 45.6592 181.053 44.4933 183.452 44.4933C185.539 44.4933 187.868 45.2134 190.024 46.5165L190.268 46.6536L192.111 43.7732L191.867 43.636C189.433 42.1272 186.338 41.2356 183.556 41.2356C178.827 41.2356 175.559 43.876 175.559 47.6481V47.7167C175.559 51.9688 180.01 53.169 183.278 54.0263C186.269 54.815 188.738 55.638 188.738 57.5583V57.6269C188.738 59.513 186.964 60.7474 184.322 60.7474C181.748 60.7474 179.105 59.8216 176.602 58.0727L176.393 57.9013L174.307 60.6446Z" fill="black"/>
</g>
<defs>
<clipPath id="clip0_432_991">
<rect width="243" height="68" fill="white" transform="translate(10 34)"/>
</clipPath>
</defs>
</svg>
