<svg width="263" height="136" viewBox="0 0 263 136" fill="none" xmlns="http://www.w3.org/2000/svg">
<path d="M151.605 97.0127C151.533 96.9401 151.485 96.795 151.389 96.7708C147.415 95.7549 146.524 91.0865 147.656 88.0145C148.571 85.4989 150.859 84.0959 153.508 84.4104C156.253 84.7248 158.203 86.5873 158.565 89.369C158.878 91.9331 158.468 94.3036 156.229 95.9242C155.458 96.4805 154.447 96.6741 153.556 97.0369C152.882 97.0127 152.256 97.0127 151.605 97.0127ZM157.818 90.6027C157.818 87.7726 156.205 85.5714 153.869 85.1844C150.185 84.5797 147.391 87.7242 148.09 91.6912C148.668 94.9808 151.196 96.795 154.182 96.0451C156.373 95.4888 157.818 93.3602 157.818 90.6027Z" fill="#030303"/>
<path d="M218.717 97.0123C218.332 96.843 217.947 96.6736 217.561 96.5285C215.852 95.8754 215.009 94.545 215.394 92.5374C215.563 92.7551 215.828 92.9728 215.852 93.2147C216.044 94.7144 216.935 95.6093 218.332 95.9722C219.921 96.3834 221.535 96.456 222.835 95.1981C224.015 94.0613 223.774 92.2471 222.257 91.6182C221.029 91.1102 219.632 90.9651 218.356 90.5055C217.465 90.1669 216.478 89.7315 215.852 89.0542C214.961 88.0625 215.322 86.2725 216.333 85.3775C217.947 83.9504 221.535 83.9987 222.98 85.571C223.557 86.1999 223.798 87.0949 224.208 87.8931C224.063 87.9899 223.919 88.1108 223.75 88.2076C223.557 87.9899 223.269 87.8206 223.172 87.5545C222.329 85.2566 219.199 84.2164 217.248 85.7162C216.719 86.1274 216.285 87.0707 216.333 87.7238C216.357 88.3285 216.984 89.1268 217.561 89.3928C218.501 89.8524 219.632 89.9492 220.668 90.2636C221.511 90.5055 222.378 90.7232 223.124 91.1586C224.834 92.1987 224.81 94.8595 223.076 96.0206C222.426 96.4559 221.607 96.6736 220.86 96.9881C220.162 97.0123 219.44 97.0123 218.717 97.0123Z" fill="#030303"/>
<path d="M117.435 97.0122C117.122 96.8671 116.833 96.6736 116.52 96.5527C114.714 95.8996 113.895 94.7143 114.184 92.5373C114.353 92.7792 114.666 93.0211 114.714 93.2872C114.907 94.7627 115.798 95.5851 117.122 95.9479C118.76 96.3833 120.421 96.4559 121.746 95.1497C122.926 93.9886 122.468 92.0535 120.831 91.473C119.338 90.9409 117.724 90.699 116.231 90.2152C115.051 89.8282 114.305 89.03 114.281 87.6512C114.257 86.2724 114.883 85.2323 116.111 84.8453C117.267 84.5067 118.543 84.4099 119.747 84.5308C121.673 84.7244 122.757 86.0789 122.853 88.401C122.444 87.9898 122.155 87.8205 122.059 87.5786C121.264 85.2081 117.893 84.2406 115.918 85.8128C114.642 86.8288 114.786 88.6671 116.279 89.3444C117.17 89.7556 118.182 89.9249 119.145 90.191C119.675 90.3361 120.253 90.4087 120.782 90.578C122.564 91.1344 123.359 92.1987 123.239 93.7951C123.118 95.2706 121.986 96.4317 120.373 96.7703C120.132 96.8187 119.891 96.9397 119.651 97.0122C118.88 97.0122 118.158 97.0122 117.435 97.0122Z" fill="#030303"/>
<path d="M198.514 97.0125C198.201 96.8674 197.912 96.6739 197.599 96.5529C195.793 95.8998 194.974 94.7146 195.263 92.5376C195.432 92.7795 195.745 93.0214 195.769 93.2874C195.985 94.8113 196.925 95.6337 198.297 95.9966C199.911 96.4078 201.524 96.432 202.8 95.1742C203.98 94.0131 203.523 92.078 201.885 91.4975C200.392 90.9653 198.779 90.7234 197.286 90.2397C196.106 89.8526 195.311 89.0544 195.335 87.6756C195.359 86.2727 195.937 85.2084 197.262 84.8214C198.201 84.5311 199.236 84.4102 200.199 84.5069C202.656 84.7004 203.763 85.8131 203.932 88.4497C203.523 88.0385 203.21 87.8933 203.113 87.6515C202.319 85.281 198.947 84.2892 196.997 85.8615C195.721 86.9016 195.841 88.6916 197.334 89.393C198.225 89.8043 199.236 89.9736 200.199 90.2397C200.729 90.3848 201.307 90.4574 201.837 90.6267C203.571 91.183 204.365 92.1748 204.293 93.7228C204.221 95.2225 203.161 96.4078 201.548 96.7948C201.259 96.8674 200.994 96.9641 200.705 97.0609C199.959 97.0125 199.236 97.0125 198.514 97.0125Z" fill="#030303"/>
<path d="M63.0621 97.0121C60.2688 96.0929 59.5463 93.9885 59.6667 91.3035C59.7631 89.3926 59.6667 87.4575 59.6908 85.5224C59.6908 85.2321 59.9075 84.9661 60.052 84.6758C60.1965 84.9419 60.4373 85.208 60.4373 85.474C60.4614 87.651 60.4132 89.8038 60.4614 91.9808C60.5336 95.1737 62.3878 96.6976 65.3497 96.0687C66.8186 95.7542 67.7577 94.8351 67.8541 93.3837C68.0226 91.11 67.9985 88.8121 68.0467 86.5383C68.0467 86.1271 67.9985 85.7159 68.0708 85.3289C68.1189 85.087 68.3357 84.8935 68.4802 84.6516C68.6006 84.8935 68.8414 85.1112 68.8414 85.3531C68.8414 87.8445 68.8895 90.336 68.7932 92.8032C68.6969 95.1012 67.4929 96.3348 65.2052 96.746C65.1089 96.7702 65.0367 96.8911 64.9644 96.9637C64.3624 97.0121 63.7122 97.0121 63.0621 97.0121Z" fill="#030303"/>
<path d="M26.3395 39.0803C31.902 39.0803 37.4887 39.0803 43.0512 39.0803C45.1462 39.0803 45.7001 39.6125 45.7001 41.6927C45.7001 52.8195 45.7001 63.9222 45.7001 75.049C45.7001 77.0566 45.1462 77.6372 43.1476 77.6372C31.9261 77.6372 20.7047 77.6372 9.48323 77.6372C7.60497 77.6372 7.00296 77.0325 7.00296 75.0974C7.00296 63.9463 7.00296 52.7953 7.00296 41.6201C7.00296 39.685 7.62905 39.0803 9.60363 39.0803C15.1903 39.0803 20.7769 39.0803 26.3395 39.0803ZM35.8512 51.7068C34.8639 52.2148 33.997 52.7228 33.082 53.0856C28.2659 55.0449 23.4498 56.98 18.6578 58.9393C17.8391 59.2779 16.9481 59.6166 16.9 60.6809C16.8518 62.1564 16.8759 63.6319 16.8759 65.0107C17.9354 64.5027 18.9227 63.9222 19.9582 63.511C24.6779 61.5759 29.4218 59.6408 34.1656 57.754C35.2974 57.2944 35.8994 56.593 35.8512 55.311C35.803 54.1015 35.8512 52.9163 35.8512 51.7068ZM18.1522 67.9133C21.8124 69.7758 25.2799 71.5416 28.8679 73.3558C28.8679 71.9044 28.9161 70.695 28.8438 69.4856C28.7957 68.6873 29.0124 68.2761 29.807 67.9859C31.3723 67.4053 32.9375 66.7764 34.4305 65.9782C35.0325 65.6637 35.7067 64.9623 35.779 64.3576C35.9716 62.9546 35.8512 61.5033 35.8512 60.318C32.9616 61.5517 30.096 62.7853 27.2064 64.0189C24.2686 65.3009 21.3308 66.5587 18.1522 67.9133ZM16.8759 56.1576C22.6793 53.3517 28.7716 51.3198 34.7194 48.7074C31.3963 46.9175 28.1214 45.1759 24.6779 43.3375C24.6779 44.6195 24.6298 45.708 24.702 46.7723C24.7502 47.498 24.4612 47.8366 23.811 48.0785C21.9568 48.78 20.1027 49.554 18.2726 50.3281C17.502 50.6425 16.8518 51.1021 16.8759 52.0697C16.8759 53.4726 16.8759 54.9239 16.8759 56.1576Z" fill="#030303"/>
<path d="M160.034 53.376C158.685 53.376 157.409 53.376 156.157 53.376C154.543 48.8527 152.472 47.2804 147.777 47.0143C143.779 46.7966 140.456 48.6834 138.819 52.5777C136.555 57.8993 136.579 63.1482 140.336 67.865C142.623 70.7435 146.91 71.7352 150.763 70.5016C154.254 69.3889 156.47 66.4863 156.735 62.5919C156.759 62.2774 156.735 61.963 156.735 61.6002C153.604 61.6002 150.57 61.6002 147.464 61.6002C147.464 60.4633 147.464 59.399 147.464 58.2621C151.702 58.2621 155.94 58.2621 160.226 58.2621C160.226 63.3417 160.226 68.4214 160.226 73.5736C159.456 73.5736 158.637 73.5736 157.77 73.5736C157.457 72.4851 157.12 71.3724 156.759 70.1388C154.832 72.4125 152.472 73.7429 149.631 74.1541C142.118 75.2426 135.785 71.1547 133.979 63.7529C132.63 58.2379 133.425 52.9648 136.965 48.3931C139.758 44.7648 143.707 43.507 148.138 43.7247C149.727 43.7972 151.341 44.0875 152.833 44.5713C157.072 45.9258 159.263 49.0462 160.034 53.376Z" fill="#030303"/>
<path d="M206.268 73.4041C206.268 63.8495 206.268 54.1498 206.268 44.2083C210.988 44.3776 215.707 44.2566 220.331 44.7646C225.773 45.3935 229.072 48.9009 230.083 54.3675C230.757 58.02 230.589 61.6483 229.505 65.1799C228.012 70.0418 224.569 72.9203 219.584 73.3315C215.202 73.6943 210.771 73.4041 206.268 73.4041ZM210.265 70.2837C212.673 70.2837 214.985 70.3321 217.297 70.2837C221.655 70.187 224.834 67.6713 225.917 63.4625C226.664 60.584 226.664 57.6572 226.086 54.7545C225.363 51.1746 223.365 48.5864 219.632 48.0543C216.574 47.6189 213.42 47.7156 210.241 47.5705C210.265 55.2625 210.265 62.7126 210.265 70.2837Z" fill="#030303"/>
<path d="M239.186 47.619C239.186 50.7877 239.186 53.7871 239.186 56.8832C244.218 56.8832 249.227 56.8832 254.26 56.8832C254.26 58.0443 254.26 59.1086 254.26 60.2455C249.251 60.2455 244.242 60.2455 239.186 60.2455C239.186 63.6077 239.186 66.8732 239.186 70.2354C244.58 70.2354 249.95 70.2354 255.44 70.2354C255.44 71.3723 255.44 72.4366 255.44 73.5493C248.721 73.5493 241.979 73.5493 235.164 73.5493C235.164 63.8254 235.164 54.1499 235.164 44.4019C241.883 44.4019 248.577 44.4019 255.319 44.4019C255.319 45.442 255.319 46.4579 255.319 47.5948C249.998 47.619 244.676 47.619 239.186 47.619Z" fill="#030303"/>
<path d="M185.486 44.4504C186.883 44.4504 188.111 44.4504 189.412 44.4504C189.412 44.8616 189.412 45.2245 189.412 45.5873C189.412 51.5377 189.412 57.464 189.412 63.4144C189.387 70.1631 185.294 74.3235 178.551 74.3477C177.155 74.3477 175.734 74.2993 174.361 74.0575C169.064 73.1141 166.102 69.9454 165.885 64.4062C165.644 57.8026 165.837 51.1749 165.837 44.4746C167.113 44.4746 168.341 44.4746 169.762 44.4746C169.762 44.8616 169.762 45.297 169.762 45.7083C169.762 51.3684 169.738 57.0286 169.762 62.6887C169.786 68.2038 172.579 71.0339 177.901 71.0097C182.621 70.9855 185.438 68.2038 185.462 63.4144C185.486 57.5607 185.462 51.6829 185.462 45.8292C185.486 45.3938 185.486 44.9584 185.486 44.4504Z" fill="#030303"/>
<path d="M75.6319 59.4231C76.4025 59.7375 77.1249 59.9552 77.7751 60.2939C79.7496 61.3582 80.4239 63.2207 80.6165 65.2767C80.761 66.6797 80.7369 68.0826 80.8573 69.4856C80.9777 70.8643 81.1463 72.2189 81.3149 73.5977C79.3644 73.7912 79.0995 73.5977 78.9791 71.3481C78.8828 69.4372 79.0032 67.4779 78.7864 65.5912C78.4252 62.2773 76.6914 60.5841 73.3684 60.4632C69.4914 60.318 65.6145 60.439 61.6412 60.439C61.6412 64.8172 61.6412 69.1711 61.6412 73.5977C60.967 73.5977 60.4131 73.5977 59.763 73.5977C59.763 63.9222 59.763 54.2467 59.763 44.4019C60.4131 44.4019 61.0874 44.4019 61.7616 44.4019C65.9275 44.4502 70.0934 44.3535 74.2593 44.5712C77.9436 44.7647 80.4721 46.8691 81.0741 49.9411C81.941 54.4886 79.9905 58.1169 75.969 59.2537C75.8727 59.2537 75.7764 59.3263 75.6319 59.4231ZM61.6412 58.6732C65.5422 58.6732 69.3951 58.8425 73.2239 58.6248C77.1008 58.4071 79.3162 55.9399 79.3884 52.2874C79.4607 48.8042 77.462 46.4579 73.5369 46.1676C69.6118 45.8532 65.6386 46.0951 61.6412 46.0951C61.6412 50.2072 61.6412 54.3918 61.6412 58.6732Z" fill="#030303"/>
<path d="M108.237 59.0117C107.659 59.0117 107.201 59.0117 106.72 59.0117C106.768 55.5043 108.502 53.2306 111.752 52.384C113.968 51.8035 116.207 51.876 118.399 52.5049C120.927 53.2548 122.131 54.9238 122.155 57.5604C122.155 61.3338 122.155 65.1073 122.155 68.8807C122.155 69.1226 122.155 69.3645 122.155 69.6064C122.179 71.9527 122.372 72.1462 124.659 72.2188C124.659 72.6058 124.659 72.9928 124.659 73.3556C121.866 74.1781 120.277 73.0896 120.518 70.0176C120.445 70.0176 120.325 69.9934 120.301 70.0418C117.845 74.2506 112.764 74.7102 109.417 73.6943C106.936 72.9202 105.805 71.4205 105.588 68.663C105.395 66.0265 106.334 63.9704 108.622 63.0754C110.308 62.4223 112.162 62.1804 113.968 61.866C115.22 61.6241 116.52 61.6241 117.772 61.3822C120.421 60.8984 121.457 58.5521 120.108 56.1333C118.76 53.7386 116.448 53.3032 113.992 53.4967C110.5 53.7869 108.935 55.3592 108.237 59.0117ZM120.686 62.2772C118.688 62.5675 116.906 62.8093 115.1 63.1238C113.221 63.4624 111.319 63.7043 109.513 64.2849C107.803 64.8412 107.153 66.4135 107.153 68.1067C107.153 69.7515 107.851 71.1303 109.368 71.9527C113.269 74.0813 118.736 72.0736 120.012 67.8406C120.566 66.0265 120.494 64.0188 120.686 62.2772Z" fill="#030303"/>
<path d="M103.035 63.3174C97.2803 63.3174 91.6695 63.3174 86.107 63.3174C85.529 67.1392 88.0093 71.6625 91.7658 72.5091C96.1966 73.5009 99.8328 71.2997 101.181 66.5345C101.663 66.5345 102.169 66.5345 102.674 66.5345C102.385 70.6708 99.1104 73.7911 94.7277 74.1298C88.6113 74.6135 84.3973 70.695 84.3009 64.164C84.2769 62.1322 84.5899 59.9794 85.2401 58.0443C86.6849 53.787 90.3692 51.6342 94.6796 52.118C99.0381 52.6018 102 55.4561 102.698 59.9068C102.915 60.9953 102.939 62.108 103.035 63.3174ZM85.9866 61.8177C91.1638 61.8177 96.2207 61.8177 101.302 61.8177C101.254 57.1977 98.1231 53.6661 93.9572 53.4726C89.8394 53.2791 86.4682 56.7864 85.9866 61.8177Z" fill="#030303"/>
<path d="M199.646 73.5979C198.394 73.5979 197.165 73.5979 195.889 73.5979C195.889 63.874 195.889 54.1985 195.889 44.4504C197.117 44.4504 198.345 44.4504 199.646 44.4504C199.646 54.1259 199.646 63.8014 199.646 73.5979Z" fill="#030303"/>
<path d="M127.477 44.4019C128.007 44.4019 128.44 44.4019 128.946 44.4019C128.946 54.1257 128.946 63.8496 128.946 73.6219C128.488 73.6219 128.007 73.6219 127.477 73.6219C127.477 63.9222 127.477 54.2225 127.477 44.4019Z" fill="#030303"/>
<path d="M244.026 84.821C244.869 84.5066 245.254 84.7485 245.567 85.4983C246.771 88.4493 248.023 91.4004 249.275 94.3272C249.42 94.69 249.588 95.0287 249.853 95.6092C251.154 92.5131 252.358 89.6346 253.562 86.7319C253.73 86.3207 253.947 85.9337 254.067 85.5225C254.26 84.7485 254.693 84.4824 255.512 84.7727C255.512 88.7154 255.512 92.6582 255.512 96.6251C255.392 96.6735 255.271 96.7219 255.151 96.7461C255.031 96.4316 254.814 96.1172 254.79 95.7785C254.766 93.142 254.766 90.4812 254.766 87.8446C254.766 87.4576 254.766 87.0464 254.766 86.6594C254.669 86.6352 254.573 86.5868 254.477 86.5626C254.356 86.8287 254.212 87.119 254.091 87.385C252.936 90.1426 251.828 92.9243 250.648 95.6818C250.479 96.0688 250.094 96.3591 249.805 96.6735C249.564 96.3591 249.227 96.0688 249.059 95.706C247.903 92.9968 246.771 90.2635 245.639 87.5302C245.471 87.1432 245.278 86.7803 244.869 86.4417C244.869 88.667 244.869 90.8924 244.869 93.0936C244.869 93.9644 244.917 94.8594 244.845 95.7302C244.82 96.0446 244.556 96.3349 244.411 96.6493C244.291 96.3591 244.05 96.0688 244.05 95.7785C244.002 92.1502 244.026 88.4977 244.026 84.821Z" fill="#030303"/>
<path d="M179.683 84.5066C180.092 84.821 180.598 85.0629 180.887 85.45C182.91 88.3284 184.909 91.2311 186.907 94.1337C187.148 94.4724 187.413 94.811 187.87 95.4399C187.87 92.4647 187.87 89.8281 187.87 87.2157C187.87 86.5626 187.822 85.9337 187.894 85.2806C187.919 85.0387 188.208 84.821 188.352 84.6033C188.448 84.6517 188.521 84.7243 188.617 84.7727C188.617 88.6912 188.617 92.6098 188.617 96.988C187.991 96.5042 187.485 96.2865 187.22 95.8995C185.197 93.021 183.199 90.1184 181.2 87.2157C180.935 86.8287 180.67 86.4417 180.189 85.7644C180.189 88.3526 180.189 90.6022 180.189 92.8759C180.189 93.8434 180.213 94.811 180.165 95.7544C180.141 96.0688 179.876 96.3591 179.731 96.6735C179.611 96.3833 179.37 96.093 179.346 95.8269C179.322 92.1744 179.322 88.5219 179.322 84.8936C179.466 84.7485 179.587 84.6275 179.683 84.5066Z" fill="#030303"/>
<path d="M103.758 84.6763C105.588 84.6763 107.273 84.6521 108.935 84.6763C110.934 84.7005 112.041 85.3536 112.451 86.7565C112.932 88.4013 112.403 89.635 110.597 90.8444C113.342 92.0055 111.897 94.6179 112.643 96.4804C112.547 96.5771 112.475 96.6497 112.378 96.7465C112.138 96.4804 111.704 96.2385 111.656 95.924C111.512 95.0532 111.584 94.1583 111.463 93.2875C111.271 91.9087 110.621 91.304 109.248 91.2556C107.731 91.2072 106.214 91.2314 104.576 91.2314C104.576 92.8521 104.601 94.4002 104.552 95.9482C104.552 96.1901 104.287 96.4078 104.143 96.6497C103.999 96.4078 103.734 96.1901 103.734 95.9482C103.734 92.2474 103.758 88.5223 103.758 84.6763ZM104.625 90.6025C106.503 90.4816 108.309 90.5058 110.067 90.2397C111.319 90.0704 111.752 88.9819 111.752 87.7966C111.752 86.5872 111.126 85.668 109.995 85.5713C108.237 85.4019 106.455 85.5229 104.649 85.5229C104.625 87.1435 104.625 88.74 104.625 90.6025Z" fill="#030303"/>
<path d="M170.027 96.698C170.027 92.6585 170.027 88.7399 170.027 84.7488C172.676 84.7488 175.349 84.7488 178.022 84.7488C178.07 84.8455 178.118 84.9423 178.166 85.039C177.877 85.16 177.612 85.3535 177.323 85.3777C175.204 85.4019 173.085 85.4019 170.894 85.4019C170.894 86.9741 170.894 88.4738 170.894 90.0219C173.157 90.1912 175.421 89.9252 177.636 90.1671C177.612 90.3848 177.612 90.5783 177.588 90.796C175.373 90.796 173.157 90.796 170.87 90.796C170.87 92.5376 170.87 94.1582 170.87 95.924C172.82 95.924 174.771 95.924 176.721 95.924C177.034 95.924 177.371 95.8756 177.684 95.9482C177.877 95.9965 178.022 96.1901 178.19 96.311C178.046 96.4561 177.877 96.7222 177.733 96.7222C175.204 96.698 172.652 96.698 170.027 96.698Z" fill="#030303"/>
<path d="M235.598 85.3775C235.598 86.9981 235.598 88.4737 235.598 90.1911C237.861 90.1911 240.077 90.1911 242.292 90.2152C242.316 90.2152 242.34 90.5055 242.388 90.7716C240.101 90.7716 237.885 90.7716 235.622 90.7716C235.622 92.5132 235.622 94.1338 235.622 95.8996C237.717 95.8996 239.788 95.8754 241.834 95.9238C242.172 95.9238 242.509 96.2141 242.846 96.3592C242.509 96.4801 242.172 96.6978 241.834 96.6978C239.523 96.722 237.187 96.722 234.779 96.722C234.779 92.7067 234.779 88.7639 234.779 84.676C237.283 84.676 239.788 84.676 242.316 84.7002C242.485 84.7002 242.629 84.9179 242.798 85.0389C242.581 85.1598 242.388 85.3775 242.172 85.3775C240.558 85.4017 238.969 85.4017 237.355 85.4017C236.802 85.3775 236.248 85.3775 235.598 85.3775Z" fill="#030303"/>
<path d="M95.3056 95.8995C97.4488 95.8995 99.5678 95.8753 101.663 95.9237C101.976 95.9237 102.265 96.214 102.554 96.3591C102.265 96.48 101.976 96.6977 101.687 96.6977C99.303 96.7219 96.8949 96.7219 94.4146 96.7219C94.4146 92.6824 94.4146 88.7396 94.4146 84.7969C97.0876 84.7969 99.7846 84.7969 102.457 84.7969C102.457 84.9178 102.482 85.0146 102.482 85.1355C101.422 85.6919 100.218 85.329 99.0862 85.4016C97.8581 85.4742 96.606 85.4258 95.2815 85.4258C95.2815 86.9739 95.2815 88.4736 95.2815 89.9733C97.521 90.07 99.7605 90.191 102 90.3119C102.024 90.3119 102.024 90.5296 102.024 90.7715C99.7846 90.7715 97.5692 90.7715 95.2815 90.7715C95.3056 92.4889 95.3056 94.1337 95.3056 95.8995Z" fill="#030303"/>
<path d="M160.106 84.7004C162.153 84.7004 164.079 84.6279 165.981 84.7246C167.739 84.8214 168.702 86.0308 168.751 87.8692C168.775 89.8043 167.86 91.0621 166.078 91.2314C164.44 91.3765 162.803 91.2556 160.973 91.2556C160.973 92.9246 160.997 94.4243 160.949 95.924C160.949 96.1659 160.708 96.432 160.587 96.6739C160.419 96.4078 160.13 96.1659 160.13 95.8998C160.106 92.2231 160.106 88.5223 160.106 84.7004ZM161.021 90.5299C162.658 90.5299 164.272 90.6267 165.861 90.5057C167.161 90.409 167.98 89.2963 167.956 87.9901C167.932 86.6597 167.113 85.5712 165.837 85.4987C164.248 85.4019 162.658 85.4745 161.045 85.4745C161.021 87.1677 161.021 88.8367 161.021 90.5299Z" fill="#030303"/>
<path d="M79.4366 95.5126C79.4366 91.9569 79.4366 88.7398 79.4607 85.5227C79.4607 85.2324 79.6774 84.9663 79.7978 84.6761C79.9423 84.9421 80.1831 85.2082 80.1831 85.4743C80.2072 89.151 80.2072 92.8519 80.2072 96.9639C79.557 96.4802 79.0754 96.2625 78.8105 95.8996C76.7396 92.9486 74.7168 89.9734 72.67 86.9982C72.4292 86.6595 72.1884 86.3209 71.755 85.692C71.755 88.3528 71.755 90.6991 71.755 93.0454C71.755 93.9645 71.779 94.8837 71.7309 95.8029C71.7068 96.069 71.466 96.335 71.3456 96.6011C71.2252 96.3592 71.0085 96.1173 71.0085 95.8513C70.9844 92.1504 70.9844 88.4737 70.9844 84.3132C71.6346 84.797 72.1643 84.9905 72.4292 85.3775C74.5724 88.4253 76.6673 91.4973 78.7864 94.5693C78.9309 94.8353 79.0754 95.053 79.4366 95.5126Z" fill="#030303"/>
<path d="M133.642 96.7704C133.377 96.5527 133.015 96.3591 132.895 96.0931C132.51 95.2707 132.269 94.3515 131.836 93.5533C131.667 93.2146 131.185 92.876 130.824 92.876C129.476 92.8034 128.103 92.876 126.755 92.8276C126.104 92.8034 125.84 93.0695 125.647 93.6258C125.358 94.4482 125.045 95.2707 124.66 96.0689C124.515 96.3591 124.178 96.5527 123.913 96.7945C123.817 96.6978 123.696 96.6252 123.6 96.5285C124.347 94.6901 125.093 92.8518 125.815 91.0376C126.586 89.1025 127.333 87.1916 128.151 85.2565C128.248 85.0146 128.537 84.7727 128.777 84.7244C128.97 84.676 129.331 84.8937 129.403 85.0872C130.92 88.8848 132.438 92.7066 133.931 96.5285C133.834 96.601 133.738 96.6736 133.642 96.7704ZM131.306 92.1019C130.487 89.9249 129.692 87.8447 128.825 85.4984C127.91 87.8205 127.092 89.9008 126.225 92.1019C127.983 92.1019 129.548 92.1019 131.306 92.1019Z" fill="#030303"/>
<path d="M93.5958 84.8454C92.2232 88.5463 90.8507 92.2472 89.4299 95.9481C89.3336 96.2383 89.0206 96.6012 88.7797 96.6254C88.563 96.6495 88.1537 96.3109 88.0573 96.069C86.6366 92.344 85.2399 88.5947 83.8433 84.8696C83.9396 84.7729 84.0359 84.7003 84.1322 84.6036C84.3971 84.8938 84.7824 85.1115 84.9269 85.4502C86.0827 88.5463 87.1904 91.6667 88.3222 94.787C88.4185 95.0531 88.5149 95.295 88.7075 95.7787C89.0928 94.8112 89.4058 94.013 89.6948 93.2147C90.6339 90.6266 91.5731 88.0384 92.5363 85.4502C92.6567 85.1115 92.9938 84.8454 93.2346 84.5552C93.3791 84.6519 93.4995 84.7487 93.5958 84.8454Z" fill="#030303"/>
<path d="M228.903 85.4744C227.434 85.3777 226.11 85.2809 224.786 85.1842C224.761 85.1842 224.761 84.9665 224.713 84.7488C227.796 84.7488 230.83 84.7488 233.888 84.7488C233.719 85.2326 233.719 85.2326 229.77 85.4019C229.77 85.7647 229.77 86.1517 229.77 86.5387C229.77 89.5865 229.77 92.6343 229.746 95.6821C229.746 95.9965 229.505 96.3352 229.361 96.6496C229.192 96.311 228.903 95.9724 228.903 95.6337C228.903 92.2957 228.903 88.9334 228.903 85.4744Z" fill="#030303"/>
<path d="M135.11 84.6035C135.255 84.8938 135.52 85.184 135.52 85.4743C135.544 88.6672 135.544 91.8843 135.544 95.0772C135.544 95.2708 135.568 95.4643 135.568 95.8755C136.916 95.8755 138.241 95.8755 139.589 95.8755C140.264 95.8755 140.962 95.8513 141.636 95.8997C141.853 95.9238 142.046 96.1174 142.262 96.2383C142.07 96.3834 141.901 96.6495 141.708 96.6495C139.445 96.6737 137.157 96.6737 134.749 96.6737C134.749 94.5935 134.749 92.61 134.749 90.6265C134.749 88.6672 134.749 86.7079 134.749 84.7486C134.87 84.7245 134.99 84.6519 135.11 84.6035Z" fill="#030303"/>
<path d="M204.847 84.5308C205.208 84.821 205.642 85.0387 205.883 85.4016C207.159 87.1915 208.387 89.0057 209.663 90.9166C210.963 89.0057 212.192 87.1915 213.468 85.3774C213.709 85.0387 214.142 84.8452 214.503 84.5791C214.6 84.6759 214.672 84.7727 214.768 84.8694C213.709 86.4175 212.697 88.0139 211.541 89.4653C210.41 90.8924 209.832 92.3921 210.072 94.2063C210.145 94.8352 210.121 95.4883 210.072 96.1414C210.048 96.3349 209.808 96.5042 209.663 96.6735C209.543 96.5042 209.35 96.3349 209.326 96.1655C209.278 95.4883 209.23 94.7868 209.326 94.1095C209.543 92.4163 208.989 91.0375 207.953 89.683C206.749 88.1349 205.714 86.4659 204.606 84.8694C204.678 84.7485 204.751 84.6517 204.847 84.5308Z" fill="#030303"/>
<path d="M83.0486 84.7726C83.0486 88.546 83.0486 92.2953 83.0245 96.0687C83.0245 96.2622 82.7837 96.4557 82.6633 96.6734C82.5429 96.4799 82.3021 96.2864 82.3021 96.0687C82.278 94.1336 82.278 92.2227 82.278 90.2876C82.278 88.6911 82.254 87.0705 82.3021 85.474C82.3021 85.1838 82.5188 84.9177 82.6392 84.6516C82.7837 84.6758 82.9041 84.7242 83.0486 84.7726Z" fill="#030303"/>
<path d="M35.8512 51.707C35.8512 52.9165 35.803 54.1017 35.8753 55.287C35.9475 56.569 35.3455 57.2704 34.1896 57.73C29.4458 59.6409 24.702 61.5518 19.9822 63.4869C18.9468 63.9223 17.9595 64.4787 16.9 64.9866C16.9 63.6079 16.8518 62.1324 16.924 60.6569C16.9722 59.5926 17.8632 59.2539 18.6819 58.9153C23.498 56.956 28.314 55.0209 33.106 53.0616C33.997 52.723 34.8398 52.215 35.8512 51.707Z" fill="#FAFAFA"/>
<path d="M18.1521 67.9133C21.3307 66.5588 24.2685 65.3251 27.2063 64.0673C30.0959 62.8337 32.9615 61.6001 35.8511 60.3665C35.8511 61.5759 35.9956 63.003 35.7789 64.406C35.6826 65.0107 35.0083 65.7122 34.4304 66.0266C32.9615 66.8007 31.3963 67.4538 29.807 68.0343C29.0123 68.3245 28.7956 68.7358 28.8438 69.534C28.916 70.7434 28.8679 71.9287 28.8679 73.4042C25.2799 71.5417 21.8123 69.7759 18.1521 67.9133Z" fill="#FAFAFA"/>
<path d="M16.876 56.1575C16.876 54.9238 16.876 53.4725 16.876 52.0454C16.876 51.0778 17.5261 50.6182 18.2726 50.3038C20.1027 49.5297 21.9569 48.7799 23.8111 48.0542C24.4613 47.8123 24.7502 47.4737 24.7021 46.748C24.6298 45.6837 24.678 44.6194 24.678 43.3132C28.1215 45.1516 31.3723 46.8932 34.7195 48.6831C28.7717 51.3197 22.6793 53.3274 16.876 56.1575Z" fill="#FBFBFB"/>
</svg>
