<svg width="263" height="136" viewBox="0 0 263 136" fill="none" xmlns="http://www.w3.org/2000/svg">
<path d="M38.5949 69.1037L38.3814 76.1103C38.3695 76.3614 38.2746 76.5886 38.0967 76.7679L20.531 94.4757C19.9379 95.0736 18.906 94.667 18.8823 93.8181L18.6925 87.218C18.6807 86.955 18.7874 86.692 18.9772 86.5006L36.9462 68.3863C37.563 67.7646 38.6186 68.2189 38.5949 69.1037Z" fill="#B1B3B6"/>
<path d="M39.0337 54.2536L38.8202 61.2602C38.8083 61.5113 38.7134 61.7385 38.5355 61.9178L20.1276 80.4865C19.5346 81.0843 18.5027 80.6778 18.479 79.8289L18.2892 73.2288C18.2774 72.9658 18.3841 72.7027 18.5739 72.5114L37.3969 53.5362C38.0136 52.9145 39.0574 53.3688 39.0337 54.2536Z" fill="#B1B3B6"/>
<path d="M17.6725 51.8385L17.127 32.9111C17.1151 32.3611 17.5421 31.9067 18.0877 31.9067L37.3851 31.9307C38.2391 31.9307 38.6779 32.9828 38.0612 33.5926L19.3093 52.4961C18.7163 53.0939 17.6963 52.6874 17.6725 51.8385Z" fill="#E87200"/>
<path d="M39.4844 39.3915L39.2709 46.3981C39.2591 46.6492 39.1642 46.8764 38.9863 47.0557L19.7244 66.4853C19.1314 67.0831 18.0995 66.6766 18.0758 65.8277L17.886 59.2276C17.8742 58.9646 17.9809 58.7015 18.1707 58.5102L37.8358 38.6741C38.4525 38.0524 39.5082 38.5187 39.4844 39.3915Z" fill="#B1B3B6"/>
<path d="M38.1441 83.954L37.6578 100.299C37.646 100.562 37.5392 100.813 37.3376 100.992C36.3057 101.913 32.7593 104.711 28.1929 104.711C24.1959 104.711 21.2307 102.57 19.9142 101.423C19.4872 101.052 19.4753 100.406 19.8667 99.9998L36.5073 83.2246C37.1122 82.6148 38.1678 83.0692 38.1441 83.954Z" fill="#B1B3B6"/>
<path d="M64.8189 72.5235H52.6735V104.017H64.8189C70.9746 104.017 80.1429 99.8205 80.1429 88.2704C80.1429 76.7203 70.9746 72.5235 64.8189 72.5235ZM63.6328 99.4379H57.4771V77.1148H63.6328C67.9145 77.1148 75.0903 78.5616 75.0903 88.2823C75.0903 97.9911 67.9027 99.4379 63.6328 99.4379ZM86.358 104.029H91.1616V72.5235H86.358V104.029ZM84.057 54.7918L74.2482 31.9307H67.9264V63.4245H72.73V40.2884L82.5507 63.4245H85.5277L95.3484 40.2884V63.4245H100.152V31.9307H93.937L84.057 54.7918ZM57.4652 31.9307H52.6616V63.4245H57.4652V31.9307ZM227.323 31.9307V36.522H237.238V63.4364H242.042V36.522H251.958V31.9426H227.323V31.9307ZM177.425 31.9307H173.262L159.491 63.4245H164.888L167.984 55.9874H182.157L185.205 63.4245H190.709L177.425 31.9307ZM169.905 51.408L175.23 38.7101L180.283 51.408H169.905ZM216.826 55.8081L200.316 31.9307H194.884V63.4245H199.687V39.559L216.197 63.4364H221.642V31.9307H216.838V55.8081H216.826ZM141.439 31.9307H136.636V63.4245H155.174V58.8451H141.439V31.9307ZM180.331 96.2215C178.279 98.864 175.527 100.215 172.135 100.215C165.967 100.215 161.318 95.0857 161.318 88.2823C161.318 81.5866 166.074 76.3496 172.135 76.3496C174.993 76.3496 177.543 77.5931 179.133 79.7692L179.5 80.2714L183.616 77.2583L183.225 76.7442C180.769 73.5278 176.832 71.7582 172.135 71.7582C163.085 71.7582 156.253 78.8605 156.253 88.2704C156.253 97.6922 163.085 104.794 172.135 104.794C177.294 104.794 181.279 102.929 183.996 99.2466L184.34 98.7683L180.722 95.7074L180.331 96.2215ZM122.474 81.491C122.474 73.5996 116.117 72.5354 109.902 72.5354H101.611V104.029H106.414V90.4465H110.02L118.157 104.029H123.992L115.369 89.9204C119.841 88.9041 122.474 85.8073 122.474 81.491ZM108.976 85.8551H106.414V77.1148H110.791C115.429 77.1148 117.409 78.4181 117.409 81.491C117.421 85.5323 113.756 85.8551 108.976 85.8551ZM135.295 89.9323H149.576V85.341H135.295V77.1148H150.596V72.5354H130.492V104.029H151.355V99.4498H135.295V89.9323ZM187.554 77.1148H197.469V104.029H202.273V77.1148H212.189V72.5354H187.554V77.1148ZM119.283 31.9307H109.759V63.4245H114.563V49.8417H119.959C125.012 49.8417 130.409 47.4743 130.409 40.8384C130.409 35.0992 126.459 31.9307 119.283 31.9307ZM119.959 45.2623H114.563V36.522H119.959C121.976 36.522 125.356 37.084 125.356 40.8981C125.356 44.7123 121.976 45.2623 119.959 45.2623Z" fill="#6D6E71"/>
<path d="M218.26 77.4551V72.3671H216.292V71.8551H220.82V72.3671H218.852V77.4551H218.26ZM221.766 77.4551V71.8551H222.254L224.814 76.2231H224.558L227.094 71.8551H227.582V77.4551H227.014V72.7431H227.15L224.814 76.7431H224.534L222.182 72.7431H222.334V77.4551H221.766Z" fill="#6D6E71"/>
</svg>
