<svg width="263" height="136" viewBox="0 0 263 136" fill="none" xmlns="http://www.w3.org/2000/svg">
<path d="M54.3188 79.841C54.3188 68.5492 54.3188 57.3417 54.3188 46.071C54.6333 46.05 54.906 46.0289 55.1786 46.0289C58.9956 46.0289 62.7916 46.0078 66.6085 46.0289C72.7744 46.071 77.0737 49.7577 77.8078 55.8881C78.395 60.7967 78.4789 65.7895 77.64 70.677C76.6543 76.3229 73.2148 79.4618 67.5103 79.7989C63.1481 80.0306 58.7649 79.841 54.3188 79.841ZM58.0309 76.5125C61.1138 76.5125 64.0709 76.681 67.028 76.4703C71.0966 76.1754 73.7182 73.6263 73.9908 69.5394C74.2634 65.4524 74.3683 61.3444 74.1796 57.2575C73.9279 52.054 70.8449 49.3364 65.6648 49.2942C63.3998 49.2732 61.1348 49.2942 58.8488 49.2942C58.5761 49.2942 58.3245 49.3364 58.0309 49.3785C58.0309 58.4583 58.0309 67.4538 58.0309 76.5125Z" fill="#515151"/>
<path d="M130.658 56.4989H134.16C134.16 56.8781 134.16 57.2573 134.16 57.6154C134.16 65.1995 134.16 72.7835 134.16 80.3675C134.16 87.2142 129.421 91.3854 122.626 90.5638C120.172 90.2689 118.096 89.2577 116.25 87.5091C117.026 86.8139 117.781 86.1398 118.62 85.3814C120.025 86.7086 121.766 87.5934 123.926 87.5934C127.953 87.5934 130.364 85.4025 130.595 81.3577C130.679 79.9672 130.616 78.5558 130.616 77.039C130.113 77.4814 129.714 77.9027 129.253 78.2398C124.199 82.1371 117.047 79.272 115.789 72.7624C115.16 69.4549 115.18 66.1264 115.894 62.8189C116.544 59.8064 118.054 57.4048 121.158 56.5832C124.471 55.6984 127.701 55.8669 130.26 58.6477C130.323 58.7109 130.406 58.7741 130.637 58.9637C130.658 58.0789 130.658 57.2994 130.658 56.4989ZM130.574 69.792C130.763 68.5069 130.742 67.2008 130.532 65.9157C130.343 64.7992 130.155 63.7037 129.882 62.6083C129.316 60.3963 127.659 59.4061 125.457 59.2586C123.129 59.1112 121.053 59.6168 120.004 61.9131C119.459 63.1349 119.165 64.5043 119.018 65.8525C118.725 68.4437 118.767 71.056 119.731 73.5419C120.633 75.8592 122.395 76.8072 125.205 76.723C127.743 76.6387 129.274 75.6064 129.945 73.2048C130.239 72.0883 130.406 70.9507 130.574 69.792Z" fill="#515151"/>
<path d="M106.875 77.9449C103.688 80.6836 99.9755 80.5572 96.2634 79.6513C93.4112 78.9561 91.7544 76.5124 91.6915 73.4577C91.6285 70.3398 93.1385 68.0014 96.0118 67.1166C97.2911 66.7164 98.6752 66.5689 100.017 66.5057C102.303 66.4214 104.61 66.4846 107.211 66.4846C107.022 64.9046 107.001 63.4089 106.645 61.9763C106.33 60.607 105.219 59.7222 103.876 59.5326C102.178 59.3009 100.416 59.2798 98.6962 59.3851C97.1233 59.4905 95.9908 60.5649 95.0051 61.8078C94.1872 61.0705 93.4112 60.3963 92.5933 59.6801C93.9774 57.8683 95.6972 56.7939 97.8573 56.4358C100.395 56.0145 102.954 56.0145 105.428 56.7307C108.595 57.6577 110.42 59.8907 110.462 63.1772C110.546 68.6124 110.483 74.0476 110.483 79.4828C110.483 79.5881 110.441 79.6724 110.399 79.8199C109.329 79.8199 108.26 79.8199 107.085 79.8199C107.043 79.2511 107.022 78.6612 106.98 78.0924C106.98 78.0081 106.98 77.9239 106.98 77.8396C106.98 77.8607 106.917 77.9028 106.875 77.9449ZM107.148 69.118C105.449 69.118 103.918 69.0969 102.387 69.118C101.003 69.1601 99.577 69.118 98.2348 69.3708C96.1795 69.7289 95.1519 71.1404 95.1729 73.2471C95.1938 75.2905 96.2215 76.6599 98.3187 76.8916C100.017 77.0812 101.8 77.0812 103.499 76.8495C105.533 76.5756 106.75 75.0799 106.938 73.0574C107.064 71.8145 107.064 70.5505 107.148 69.118Z" fill="#515151"/>
<path d="M242.482 65.7261C239.882 70.129 237.344 74.4056 234.87 78.7032C234.345 79.6091 233.8 80.0304 232.751 79.904C231.891 79.7987 231.011 79.8829 229.962 79.8829C230.214 79.4616 230.381 79.1456 230.57 78.8296C233.695 73.6472 236.82 68.4648 239.966 63.3034C240.322 62.7136 240.322 62.3133 239.966 61.7234C237.009 56.8359 234.115 51.9274 231.178 47.0399C231.011 46.745 230.843 46.45 230.612 46.0287C231.996 46.0287 233.255 46.0076 234.492 46.0498C234.744 46.0498 235.058 46.3236 235.184 46.5343C241.769 57.5522 248.355 68.5912 254.919 79.6091C254.94 79.6301 254.94 79.6723 254.961 79.8829C253.64 79.8829 252.339 79.9251 251.06 79.8408C250.829 79.8197 250.557 79.4195 250.389 79.1456C247.956 75.0165 245.523 70.8875 243.091 66.7584C242.923 66.4424 242.755 66.1474 242.482 65.7261Z" fill="#515151"/>
<path d="M29.2778 70.2976C29.152 68.8651 29.152 67.4325 29.2988 66C29.3827 65.1573 29.4875 64.3146 29.6553 63.472C30.6201 58.9637 34.1853 56.1618 38.8412 56.1407C43.4971 56.1197 47.1043 58.9005 48.09 63.4088C48.8031 66.7373 48.866 70.108 47.9642 73.4155C46.7268 77.9659 43.0776 80.3886 38.0233 80.1147C33.703 79.904 30.3055 76.8493 29.5505 72.4464C29.4246 71.7512 29.3617 71.0349 29.2778 70.2976ZM45.07 69.4339C45.1539 68.6123 45.1539 67.7907 45.07 66.969C44.9651 65.8736 44.8603 64.7781 44.6505 63.7248C44.1053 61.0282 41.7983 59.2797 38.967 59.2586C36.0938 59.2376 33.724 60.9861 33.1367 63.7248C32.4866 66.6952 32.4866 69.7077 33.1367 72.6992C33.724 75.3747 36.0309 77.1021 38.8831 77.1021C41.7564 77.1021 44.0633 75.4168 44.6296 72.7203C44.8603 71.6248 44.9651 70.5293 45.07 69.4339Z" fill="#515151"/>
<path d="M183.403 67.7486C183.445 68.2753 183.445 68.802 183.382 69.3286C183.257 70.5716 183.131 71.962 182.795 73.3102C181.642 77.7974 178.076 80.2412 173.127 80.1359C168.807 80.0305 165.346 77.1865 164.423 72.8678C163.752 69.6657 163.752 66.4425 164.486 63.2614C165.514 58.7742 169.289 55.9934 173.966 56.1408C178.769 56.2883 182.25 59.3009 183.026 64.0198C183.215 65.1995 183.299 66.4003 183.403 67.7486ZM167.402 67.854C167.548 69.3708 167.59 70.6769 167.779 71.9409C168.24 75.0377 170.505 77.018 173.588 77.0601C176.671 77.1233 178.999 75.2484 179.545 72.1516C180.048 69.4129 180.027 66.6321 179.503 63.8934C178.978 61.1337 176.734 59.2798 173.861 59.2166C170.967 59.1534 168.576 60.8598 167.968 63.5774C167.653 65.0731 167.569 66.5689 167.402 67.854Z" fill="#515151"/>
<path d="M155.636 79.8198C155.636 75.1219 155.636 70.5294 155.636 65.9368C155.636 65.2627 155.636 64.5886 155.531 63.9355C155.007 60.6912 152.784 59.048 149.302 59.2587C146.199 59.4483 144.101 61.5339 144.038 64.6939C143.955 69.3286 144.017 73.9633 143.996 78.5769C143.996 78.9561 143.996 79.3353 143.996 79.7777C142.822 79.7777 141.731 79.7777 140.536 79.7777C140.536 72.0251 140.536 64.2726 140.536 56.4568C141.648 56.4568 142.738 56.4568 143.934 56.4568C143.934 57.1942 143.934 57.9104 143.934 58.7742C144.164 58.6267 144.311 58.5846 144.416 58.4792C147.142 56.0144 151.4 55.3614 154.692 56.9414C157.398 58.2475 158.929 60.5227 159.034 63.4299C159.222 68.8441 159.076 74.2793 159.076 79.7777C157.964 79.8198 156.852 79.8198 155.636 79.8198Z" fill="#515151"/>
<path d="M186.319 76.9125C187.053 76.0909 187.745 75.3114 188.479 74.5109C191.31 77.1231 194.645 77.5234 198.189 76.9757C198.797 76.8914 199.405 76.6807 199.972 76.4279C201.607 75.6906 202.362 74.2581 202.132 72.5095C201.922 71.0349 200.873 70.0658 199.07 69.813C197.539 69.6023 196.008 69.5391 194.477 69.3495C193.449 69.2231 192.401 69.0756 191.394 68.7807C189.171 68.1276 187.682 66.6951 187.325 64.3356C186.948 61.8919 187.514 59.722 189.548 58.142C191.079 56.9412 192.862 56.3724 194.791 56.2671C198.252 56.0564 201.544 56.562 204.481 58.6897C203.705 59.4482 202.971 60.1855 202.174 60.9439C199.825 59.3428 197.161 58.9004 194.351 59.2796C192.778 59.4903 191.436 60.1223 190.849 61.7234C190.136 63.6826 190.974 65.4943 193.009 65.9999C194.666 66.4002 196.385 66.4423 198.084 66.674C199.154 66.8215 200.244 66.9268 201.272 67.2428C205.718 68.57 207.123 74.0263 203.914 77.4391C202.425 79.0192 200.517 79.7775 198.42 80.0093C194.078 80.4938 189.905 80.1357 186.402 77.0389C186.34 76.9546 186.298 76.8914 186.319 76.9125Z" fill="#515151"/>
<path d="M23.804 74.4268C24.601 75.1852 25.356 75.9015 26.111 76.6178C23.6153 79.841 19.0014 81.0207 14.744 79.5882C11.4304 78.4716 9.39606 76.1122 8.4523 72.8047C7.55049 69.6657 7.55049 66.4847 8.49425 63.3457C9.94134 58.5636 13.9261 55.867 18.9175 56.1198C21.8117 56.2673 24.1815 57.3628 26.1529 59.659C25.3979 60.3542 24.6429 61.0705 23.846 61.8289C23.6153 61.6393 23.4056 61.4708 23.2168 61.2812C21.1825 59.2166 18.7497 58.7742 16.0653 59.5748C13.4437 60.3542 11.9757 62.3556 11.6401 64.9257C11.3465 67.0535 11.3675 69.2865 11.6611 71.4143C11.9966 73.9634 13.4437 75.9226 16.0233 76.702C18.6868 77.5026 21.1406 77.0812 23.1749 75.0167C23.3427 74.8692 23.5314 74.7007 23.804 74.4268Z" fill="#515151"/>
<path d="M210.584 59.2797C209.556 59.2797 208.633 59.2797 207.668 59.2797C207.668 58.3738 207.668 57.5943 207.668 56.6885C208.57 56.6885 209.493 56.6885 210.542 56.6885C210.542 54.1815 210.542 51.801 210.542 49.3362C211.779 49.3362 212.891 49.3362 214.086 49.3362C214.086 51.7167 214.086 54.0762 214.086 56.5621C215.785 56.5621 217.4 56.5621 219.098 56.5621C219.098 57.489 219.098 58.3106 219.098 59.2375C217.484 59.2375 215.869 59.2375 214.317 59.2375C214.212 59.4061 214.149 59.4482 214.149 59.5114C214.149 64.2936 214.107 69.0546 214.149 73.8368C214.17 75.7539 215.239 76.8072 217.148 76.8915C217.777 76.9125 218.406 76.8915 219.098 76.8915C219.098 77.8605 219.098 78.7875 219.098 80.0304C217.463 79.8408 215.764 79.8619 214.191 79.4195C211.905 78.7664 210.605 76.4069 210.584 73.4576C210.563 69.1389 210.584 64.8202 210.584 60.5015C210.584 60.1434 210.584 59.7642 210.584 59.2797Z" fill="#515151"/>
<path d="M87.2034 79.8409C86.0079 79.8409 84.9384 79.8409 83.7849 79.8409C83.7849 72.0673 83.7849 64.3358 83.7849 56.52C84.8964 56.52 86.0289 56.52 87.2034 56.52C87.2034 64.2726 87.2034 72.0251 87.2034 79.8409Z" fill="#515151"/>
<path d="M223.796 56.4778C224.887 56.4778 225.998 56.4778 227.173 56.4778C227.173 64.2514 227.173 71.9829 227.173 79.7987C226.082 79.7987 224.992 79.7987 223.796 79.7987C223.796 72.0672 223.796 64.2935 223.796 56.4778Z" fill="#515151"/>
<path d="M254.395 46.0077C251.228 51.2743 248.166 56.3936 245.041 61.6181C244.391 60.6069 243.762 59.68 243.217 58.732C243.112 58.5424 243.175 58.1421 243.321 57.9104C245.461 54.1394 247.6 50.3685 249.781 46.6397C249.97 46.3237 250.452 46.0498 250.809 46.0287C251.941 45.9655 253.074 46.0077 254.395 46.0077Z" fill="#515151"/>
<path d="M85.5465 45.3336C86.8888 45.3546 87.9374 46.4501 87.8954 47.7563C87.8535 49.0203 86.8049 50.0104 85.4836 50.0104C84.1204 50.0104 83.0928 48.936 83.1347 47.5877C83.1976 46.3027 84.2463 45.3125 85.5465 45.3336Z" fill="#515151"/>
<path d="M225.495 45.3336C226.816 45.3546 227.928 46.4712 227.886 47.7562C227.844 48.9992 226.753 50.0104 225.453 50.0104C224.09 50.0104 223.062 48.9571 223.104 47.6088C223.146 46.3237 224.216 45.3125 225.495 45.3336Z" fill="#515151"/>
</svg>
