<svg width="264" height="136" viewBox="0 0 264 136" fill="none" xmlns="http://www.w3.org/2000/svg">
<g clip-path="url(#clip0_432_1028)">
<path d="M62.2558 75.6308C61.1249 79.3535 59.1777 82.7708 56.5588 85.6287C53.9399 88.4867 50.7167 90.7116 47.1289 92.1383C43.5411 93.5649 39.6811 94.1564 35.8357 93.8688C31.9903 93.5813 28.2586 92.4221 24.918 90.4774C30.4863 91.9041 36.3818 91.1707 41.4407 88.4221C46.4997 85.6734 50.3543 81.1093 52.2436 75.6308H46.8314C45.7859 77.9081 44.2823 79.9406 42.4163 81.5988C40.5503 83.2571 38.3628 84.5048 35.9932 85.2626C33.6235 86.0203 31.1236 86.2715 28.6525 86C26.1814 85.7286 23.7934 84.9406 21.6405 83.686C22.177 83.7436 22.7161 83.7722 23.2557 83.7719C26.0413 83.7568 28.7731 82.9951 31.1719 81.5648C33.5707 80.1345 35.5505 78.0868 36.909 75.6308H30.6561C28.9871 77.2809 26.8245 78.3271 24.5052 78.6064C22.1859 78.8857 19.8402 78.3823 17.8338 77.1747C15.8274 75.9672 14.2729 74.1233 13.4126 71.9304C12.5523 69.7374 12.4345 67.3187 13.0776 65.0512C13.7206 62.7836 15.0884 60.7945 16.9678 59.394C18.8472 57.9934 21.1326 57.26 23.4678 57.3081C25.8031 57.3562 28.057 58.183 29.8783 59.6597C31.6996 61.1365 32.986 63.1802 33.537 65.4724H23.2368V70.5373H38.8595V68C38.8532 63.8182 37.2051 59.8095 34.2765 56.8529C31.3479 53.8964 27.3778 52.2332 23.2368 52.2282C22.6972 52.2279 22.1581 52.2565 21.6216 52.314C24.5319 50.6105 27.8586 49.7694 31.2204 49.8871C34.5822 50.0049 37.8432 51.0766 40.6297 52.9796C43.4162 54.8826 45.6154 57.5398 46.9753 60.6468C48.3353 63.7538 48.801 67.1849 48.3191 70.5468H53.3818C53.4745 69.7011 53.5218 68.8509 53.5235 68C53.5227 64.4689 52.7233 60.9845 51.1863 57.8127C49.6492 54.641 47.4152 51.8656 44.6545 49.6984C41.8938 47.5311 38.6795 46.0292 35.2566 45.3071C31.8337 44.5851 28.2928 44.6621 24.9039 45.5322C28.8061 43.261 33.2315 42.067 37.7355 42.0704C42.2394 42.0737 46.6631 43.2742 50.562 45.5513C54.4609 47.8283 57.6975 51.1016 59.9467 55.0421C62.1959 58.9827 63.3783 63.4517 63.3751 68C63.3755 68.8506 63.3329 69.7006 63.2475 70.5468H68.2819C68.3528 69.7074 68.3953 68.8585 68.3953 68C68.3953 60.1118 65.4175 52.5202 60.0684 46.7717C54.7193 41.0232 47.4014 37.5501 39.6052 37.0599C31.8089 36.5698 24.1209 39.0994 18.1071 44.1335C12.0933 49.1677 8.20602 56.3276 7.23714 64.155C6.26827 71.9823 8.29066 79.8882 12.8924 86.2624C17.4941 92.6365 24.3289 96.9994 32.0047 98.4623C39.6805 99.9252 47.6199 98.3781 54.2056 94.1361C60.7913 89.8941 65.528 83.2764 67.4507 75.6308H62.2558Z" fill="#EB6039"/>
<path d="M251.103 58.099V55.7716H250.271V55.2327H252.538V55.7716H251.712V58.099H251.103Z" fill="black"/>
<path d="M255.414 58.0991V56.034L254.612 58.0991H254.347L253.525 56.034V58.0991H252.921V55.2375H253.766L254.47 57.0308L255.159 55.2375H256.014V58.0991H255.414Z" fill="black"/>
<path d="M130.452 86.0325H157.947V79.7562H136.662V73.6706H155.255V67.3943H136.662V61.3231H157.947V55.0325H130.452V86.0325Z" fill="black"/>
<path d="M206.213 86.0325H212.438V55.0325H206.213V86.0325Z" fill="black"/>
<path d="M163.969 86.0326H172.55L178.189 79.7944L173.882 75.0681L163.969 86.0326Z" fill="black"/>
<path d="M191.988 86.0325H200.574L186.562 70.5325L200.574 55.0325H191.988L182.269 65.7823L172.55 55.0325H163.969L177.962 70.5229L187.058 80.5097L191.988 86.0325Z" fill="black"/>
<path d="M89.8835 86.0325H111.764C114.847 86.0274 117.802 84.7881 119.982 82.5861C122.161 80.3841 123.387 77.3993 123.391 74.2859V66.7743C123.387 63.6613 122.161 60.677 119.981 58.4758C117.802 56.2746 114.846 55.0363 111.764 55.0325H89.8835V61.3231H111.792C113.217 61.3243 114.583 61.8966 115.591 62.9141C116.599 63.9317 117.165 65.3114 117.167 66.7505V74.3192C117.165 75.7583 116.599 77.138 115.591 78.1556C114.583 79.1731 113.217 79.7454 111.792 79.7466H96.1081V67.3848H89.8835V86.0325Z" fill="black"/>
<path d="M218.303 79.551C219.177 81.4948 220.579 83.1485 222.346 84.3202C224.221 85.5767 226.42 86.2484 228.67 86.2518H241.539C243.557 86.2538 245.538 85.705 247.272 84.6636C248.722 83.8283 249.93 82.6257 250.778 81.1745C251.626 79.7234 252.085 78.0739 252.108 76.389C252.128 74.6621 251.615 72.9718 250.64 71.553C249.365 69.6787 247.471 68.4769 244.845 67.8759C243.187 67.4896 240.75 67.3418 237.614 67.4372C237.505 67.4252 237.394 67.4252 237.284 67.4372H237.152H233.019C229.964 67.4372 228.896 67.4372 228.66 67.399C225.709 67.0938 225.085 65.7298 225.085 64.6376C225.087 64.0554 225.251 63.4853 225.557 62.9922C226.351 61.633 227.749 60.9081 229.609 60.9081H241.36C242.354 60.8935 243.332 61.1652 244.179 61.6914C245.027 62.2175 245.708 62.9764 246.144 63.8793L251.698 61.4947C250.834 59.5442 249.43 57.8877 247.655 56.7255C245.792 55.4701 243.599 54.8058 241.36 54.8178H229.628C227.608 54.8075 225.623 55.3568 223.89 56.4059C222.448 57.2451 221.245 58.4459 220.397 59.8921C219.549 61.3384 219.085 62.9811 219.05 64.6615C219.03 66.3766 219.54 68.0552 220.509 69.4641C221.76 71.3432 223.593 72.545 226.119 73.1459C227.749 73.5275 230.124 73.6753 233.203 73.5847L237.785 73.5513C239.298 73.4572 240.817 73.4795 242.328 73.6181C244.821 73.8661 246.082 74.7961 246.082 76.3795C246.081 76.9618 245.917 77.5319 245.61 78.0249C244.802 79.4079 243.438 80.109 241.558 80.109H228.67C227.672 80.1188 226.693 79.8454 225.842 79.3201C224.991 78.7948 224.303 78.0386 223.857 77.1378L218.303 79.551Z" fill="black"/>
</g>
<defs>
<clipPath id="clip0_432_1028">
<rect width="249" height="62" fill="white" transform="translate(7 37)"/>
</clipPath>
</defs>
</svg>
